
<svg width="1684" height="63" viewBox="0 0 1684 63" fill="none" xmlns="http://www.w3.org/2000/svg">
  <path d="M0 12.2401H3.35378V35.1225C3.35378 35.9891 3.34675 36.9368 3.33269 37.9659C3.31863 38.9769 3.29754 39.9698 3.26941 40.9447C3.24129 41.9195 3.20613 42.8041 3.16395 43.5985C3.13582 44.3928 3.1077 45.0066 3.07957 45.4399H3.24832L20.418 12.2401H24.3624V51.8307H21.0086V29.2191C21.0086 28.2623 21.0227 27.2513 21.0508 26.1862C21.0789 25.103 21.107 24.0559 21.1352 23.0449C21.1773 22.0339 21.2195 21.1313 21.2617 20.3369C21.3039 19.5245 21.332 18.9017 21.3461 18.4684H21.1563L3.96548 51.8307H0V12.2401Z" fill="#CACACA" />
  <path d="M56.1495 51.8307H52.5637V33.1728H36.3643V51.8307H32.7785V12.2401H36.3643V29.1108H52.5637V12.2401H56.1495V51.8307Z" fill="#CACACA" />
  <path d="M79.3729 11.6714V16.5458C82.6353 16.618 85.2297 17.304 87.1562 18.6038C89.0827 19.9037 90.4678 21.6458 91.3115 23.8302C92.1552 26.0147 92.5771 28.4879 92.5771 31.2501C92.5771 33.1276 92.3521 34.951 91.9021 36.7202C91.4521 38.4894 90.7209 40.0871 89.7084 41.5133C88.696 42.9215 87.339 44.0588 85.6375 44.9254C83.9501 45.7739 81.8618 46.2252 79.3729 46.2794V52.3723H75.8293V46.2794C73.284 46.2252 71.1607 45.7558 69.4592 44.8712C67.7577 43.9866 66.4077 42.8312 65.4093 41.405C64.4109 39.9788 63.6938 38.3901 63.2578 36.639C62.836 34.8878 62.6251 33.1096 62.6251 31.3042C62.6251 29.3003 62.8571 27.4228 63.3211 25.6716C63.7852 23.9024 64.5304 22.3499 65.557 21.0139C66.5976 19.6599 67.9616 18.5948 69.649 17.8185C71.3364 17.0242 73.3965 16.5999 75.8293 16.5458V11.6714H79.3729ZM75.8293 20.4452C73.495 20.5175 71.6247 21.0049 70.2185 21.9076C68.8264 22.7922 67.821 24.0288 67.2022 25.6175C66.5835 27.2062 66.2741 29.0837 66.2741 31.2501C66.2741 33.5248 66.6116 35.4926 67.2866 37.1535C67.9756 38.7963 69.0233 40.0781 70.4295 40.9988C71.8497 41.9015 73.6497 42.3979 75.8293 42.4882V20.4452ZM79.3729 20.4452V42.4882C81.6228 42.3979 83.4509 41.8834 84.857 40.9447C86.2633 40.0059 87.2968 38.7061 87.9577 37.0452C88.6186 35.3843 88.9491 33.4345 88.9491 31.1959C88.9491 29.0115 88.6397 27.134 88.021 25.5633C87.4023 23.9746 86.3898 22.747 84.9836 21.8805C83.5915 20.9959 81.7212 20.5175 79.3729 20.4452Z" fill="#CACACA" />
  <path d="M125.799 31.9812C125.799 35.0322 125.496 37.8124 124.892 40.3218C124.287 42.8132 123.387 44.9615 122.192 46.7668C121.01 48.5541 119.541 49.9352 117.783 50.91C116.025 51.8849 113.986 52.3723 111.666 52.3723C109.276 52.3723 107.187 51.8849 105.402 50.91C103.63 49.9352 102.153 48.5451 100.972 46.7397C99.8049 44.9344 98.9261 42.7771 98.3355 40.2677C97.7589 37.7583 97.4706 34.9781 97.4706 31.9271C97.4706 27.8832 97.9909 24.3357 99.0315 21.2847C100.072 18.2337 101.647 15.8597 103.756 14.1627C105.88 12.4657 108.537 11.6172 111.73 11.6172C114.781 11.6172 117.347 12.4567 119.428 14.1357C121.524 15.8146 123.106 18.1796 124.174 21.2306C125.257 24.2635 125.799 27.8471 125.799 31.9812ZM101.246 31.9812C101.246 35.3391 101.619 38.2457 102.364 40.7009C103.11 43.1562 104.249 45.0518 105.781 46.3877C107.328 47.7236 109.29 48.3916 111.666 48.3916C114.057 48.3916 116.011 47.7236 117.53 46.3877C119.063 45.0518 120.195 43.1562 120.926 40.7009C121.657 38.2457 122.023 35.3391 122.023 31.9812C122.023 26.8722 121.186 22.8824 119.513 20.012C117.854 17.1235 115.259 15.6792 111.73 15.6792C109.339 15.6792 107.37 16.3381 105.823 17.656C104.277 18.9739 103.124 20.8514 102.364 23.2886C101.619 25.7078 101.246 28.6053 101.246 31.9812Z" fill="#CACACA" />
  <path d="M140.732 12.2401C144.712 12.2401 147.616 13.242 149.444 15.2459C151.286 17.2318 152.207 20.0842 152.207 23.8031C152.207 25.4821 151.989 27.0798 151.553 28.5963C151.131 30.0947 150.442 31.4216 149.486 32.577C148.53 33.7144 147.271 34.617 145.71 35.285C144.163 35.9349 142.265 36.2598 140.015 36.2598H136.261V51.8307H132.675V12.2401H140.732ZM140.395 16.1666H136.261V32.3062H139.614C141.583 32.3062 143.221 32.0354 144.529 31.4938C145.851 30.9522 146.842 30.0766 147.503 28.8671C148.164 27.6394 148.495 26.0147 148.495 23.9927C148.495 21.3569 147.841 19.3982 146.533 18.1164C145.225 16.8166 143.179 16.1666 140.395 16.1666Z" fill="#CACACA" />
  <path d="M172.224 51.8307L161.868 16.7895H161.699C161.755 17.5297 161.804 18.4323 161.846 19.4975C161.889 20.5626 161.924 21.727 161.952 22.9907C161.98 24.2364 161.994 25.5092 161.994 26.809V51.8307H158.661V12.2401H163.977L173.743 45.1691H173.891L183.804 12.2401H189.077V51.8307H185.534V26.484C185.534 25.3106 185.548 24.1371 185.576 22.9637C185.604 21.7722 185.639 20.6529 185.681 19.6058C185.724 18.5406 185.766 17.6199 185.808 16.8436H185.639L175.156 51.8307H172.224Z" fill="#CACACA" />
  <path d="M216.857 51.8307L213.06 39.2657H200.7L196.924 51.8307H193.296L205.361 12.0776H208.588L220.569 51.8307H216.857ZM211.984 35.1767L208.378 22.6929C208.293 22.3679 208.153 21.8353 207.956 21.0952C207.773 20.355 207.583 19.5877 207.386 18.7934C207.189 17.999 207.028 17.3582 206.901 16.8707C206.76 17.6109 206.606 18.3511 206.437 19.0913C206.282 19.8134 206.128 20.4904 205.973 21.1222C205.818 21.7361 205.685 22.2596 205.572 22.6929L201.902 35.1767H211.984Z" fill="#CACACA" />
  <path d="M251.513 47.7688V62.1752H248.075V51.8307H224.851V12.2401H228.437V47.7146H244.278V12.2401H247.821V47.7688H251.513Z" fill="#CACACA" />
  <path d="M256.744 12.2401H260.098V35.1225C260.098 35.9891 260.09 36.9368 260.076 37.9659C260.062 38.9769 260.041 39.9698 260.013 40.9447C259.985 41.9195 259.95 42.8041 259.908 43.5985C259.88 44.3928 259.851 45.0066 259.823 45.4399H259.992L277.162 12.2401H281.106V51.8307H277.752V29.2191C277.752 28.2623 277.766 27.2513 277.795 26.1862C277.823 25.103 277.851 24.0559 277.879 23.0449C277.921 22.0339 277.963 21.1313 278.005 20.3369C278.048 19.5245 278.076 18.9017 278.09 18.4684H277.9L260.709 51.8307H256.744V12.2401Z" fill="#CACACA" />
  <path d="M316.268 31.9812C316.268 35.0322 315.966 37.8124 315.361 40.3218C314.756 42.8132 313.856 44.9615 312.661 46.7668C311.48 48.5541 310.011 49.9352 308.253 50.91C306.495 51.8849 304.456 52.3723 302.136 52.3723C299.745 52.3723 297.657 51.8849 295.871 50.91C294.099 49.9352 292.623 48.5451 291.442 46.7397C290.275 44.9344 289.396 42.7771 288.805 40.2677C288.229 37.7583 287.94 34.9781 287.94 31.9271C287.94 27.8832 288.461 24.3357 289.501 21.2847C290.542 18.2337 292.117 15.8597 294.226 14.1627C296.349 12.4657 299.007 11.6172 302.199 11.6172C305.251 11.6172 307.817 12.4567 309.898 14.1357C311.993 15.8146 313.575 18.1796 314.644 21.2306C315.727 24.2635 316.268 27.8471 316.268 31.9812ZM291.716 31.9812C291.716 35.3391 292.089 38.2457 292.834 40.7009C293.579 43.1562 294.718 45.0518 296.251 46.3877C297.798 47.7236 299.759 48.3916 302.136 48.3916C304.526 48.3916 306.481 47.7236 308 46.3877C309.532 45.0518 310.664 43.1562 311.396 40.7009C312.127 38.2457 312.492 35.3391 312.492 31.9812C312.492 26.8722 311.656 22.8824 309.982 20.012C308.323 17.1235 305.729 15.6792 302.199 15.6792C299.809 15.6792 297.84 16.3381 296.293 17.656C294.746 18.9739 293.593 20.8514 292.834 23.2886C292.089 25.7078 291.716 28.6053 291.716 31.9812Z" fill="#CACACA" />
  <path d="M346.515 51.8307H342.93V33.1728H326.73V51.8307H323.144V12.2401H326.73V29.1108H342.93V12.2401H346.515V51.8307Z" fill="#CACACA" />
  <path d="M378.366 51.8307H374.78V33.1728H358.581V51.8307H354.995V12.2401H358.581V29.1108H374.78V12.2401H378.366V51.8307Z" fill="#CACACA" />
  <path d="M386.845 51.8307V12.2401H390.431V29.0837H395.367C398.151 29.0837 400.366 29.5711 402.011 30.546C403.656 31.5028 404.838 32.8297 405.555 34.5267C406.272 36.2057 406.63 38.1193 406.63 40.2677C406.63 43.8061 405.759 46.6224 404.015 48.7166C402.285 50.7927 399.564 51.8307 395.852 51.8307H386.845ZM390.431 47.9042H395.493C398.039 47.9042 399.909 47.2723 401.104 46.0086C402.313 44.7449 402.918 42.8312 402.918 40.2677C402.918 38.4804 402.623 37.0722 402.032 36.0432C401.456 34.9961 400.577 34.2559 399.396 33.8227C398.228 33.3713 396.752 33.1457 394.966 33.1457H390.431V47.9042ZM411.313 51.8307V12.2401H414.899V51.8307H411.313Z" fill="#CACACA" />
  <path d="M423.547 12.2401H426.901V35.1225C426.901 35.9891 426.894 36.9368 426.88 37.9659C426.866 38.9769 426.845 39.9698 426.816 40.9447C426.788 41.9195 426.753 42.8041 426.711 43.5985C426.683 44.3928 426.655 45.0066 426.627 45.4399H426.795L443.965 12.2401H447.909V51.8307H444.556V29.2191C444.556 28.2623 444.57 27.2513 444.598 26.1862C444.626 25.103 444.654 24.0559 444.682 23.0449C444.724 22.0339 444.767 21.1313 444.809 20.3369C444.851 19.5245 444.879 18.9017 444.893 18.4684H444.703L427.512 51.8307H423.547V12.2401ZM444.092 0C443.965 1.82337 443.606 3.34887 443.016 4.57649C442.439 5.8041 441.589 6.73384 440.464 7.36571C439.339 7.97951 437.897 8.28642 436.139 8.28642C434.326 8.28642 432.863 7.98854 431.752 7.39279C430.655 6.77898 429.84 5.85826 429.305 4.63065C428.785 3.40303 428.476 1.85948 428.377 0H431.668C431.822 1.98585 432.237 3.33984 432.912 4.06197C433.587 4.7841 434.684 5.14516 436.203 5.14516C437.553 5.14516 438.614 4.76604 439.388 4.00781C440.161 3.24958 440.625 1.91364 440.78 0H444.092Z" fill="#CACACA" />
  <path d="M467.547 51.8307V12.2401H490.517V51.8307H486.974V16.302H471.133V51.8307H467.547Z" fill="#CACACA" />
  <path d="M525.764 31.9812C525.764 35.0322 525.461 37.8124 524.857 40.3218C524.252 42.8132 523.352 44.9615 522.157 46.7668C520.975 48.5541 519.506 49.9352 517.748 50.91C515.99 51.8849 513.951 52.3723 511.631 52.3723C509.241 52.3723 507.153 51.8849 505.367 50.91C503.595 49.9352 502.118 48.5451 500.937 46.7397C499.77 44.9344 498.891 42.7771 498.301 40.2677C497.724 37.7583 497.436 34.9781 497.436 31.9271C497.436 27.8832 497.956 24.3357 498.997 21.2847C500.037 18.2337 501.612 15.8597 503.721 14.1627C505.845 12.4657 508.502 11.6172 511.695 11.6172C514.746 11.6172 517.312 12.4567 519.393 14.1357C521.489 15.8146 523.071 18.1796 524.139 21.2306C525.222 24.2635 525.764 27.8471 525.764 31.9812ZM501.211 31.9812C501.211 35.3391 501.584 38.2457 502.329 40.7009C503.075 43.1562 504.214 45.0518 505.746 46.3877C507.293 47.7236 509.255 48.3916 511.631 48.3916C514.022 48.3916 515.976 47.7236 517.495 46.3877C519.028 45.0518 520.16 43.1562 520.891 40.7009C521.622 38.2457 521.988 35.3391 521.988 31.9812C521.988 26.8722 521.151 22.8824 519.478 20.012C517.819 17.1235 515.224 15.6792 511.695 15.6792C509.304 15.6792 507.335 16.3381 505.789 17.656C504.242 18.9739 503.089 20.8514 502.329 23.2886C501.584 25.7078 501.211 28.6053 501.211 31.9812Z" fill="#CACACA" />
  <path d="M540.697 12.2401C544.677 12.2401 547.581 13.242 549.409 15.2459C551.251 17.2318 552.172 20.0842 552.172 23.8031C552.172 25.4821 551.954 27.0798 551.518 28.5963C551.096 30.0947 550.407 31.4216 549.451 32.577C548.495 33.7144 547.236 34.617 545.675 35.285C544.129 35.9349 542.23 36.2598 539.98 36.2598H536.226V51.8307H532.64V12.2401H540.697ZM540.36 16.1666H536.226V32.3062H539.579C541.548 32.3062 543.186 32.0354 544.494 31.4938C545.816 30.9522 546.807 30.0766 547.468 28.8671C548.129 27.6394 548.46 26.0147 548.46 23.9927C548.46 21.3569 547.806 19.3982 546.498 18.1164C545.19 16.8166 543.144 16.1666 540.36 16.1666Z" fill="#CACACA" />
  <path d="M568.097 51.8307H564.49V16.302H554.788V12.2401H577.758V16.302H568.097V51.8307Z" fill="#CACACA" />
  <path d="M601.762 51.8307L597.965 39.2657H585.604L581.829 51.8307H578.201L590.266 12.0776H593.493L605.474 51.8307H601.762ZM596.889 35.1767L593.282 22.6929C593.198 22.3679 593.057 21.8353 592.86 21.0952C592.678 20.355 592.488 19.5877 592.291 18.7934C592.094 17.999 591.932 17.3582 591.806 16.8707C591.665 17.6109 591.51 18.3511 591.342 19.0913C591.187 19.8134 591.032 20.4904 590.878 21.1222C590.723 21.7361 590.589 22.2596 590.477 22.6929L586.807 35.1767H596.889Z" fill="#CACACA" />
  <path d="M631.693 51.8307H628.107V16.302H618.109C617.912 18.324 617.701 20.4362 617.476 22.6387C617.251 24.8412 617.019 27.0347 616.78 29.2191C616.541 31.4035 616.302 33.4706 616.063 35.4204C615.824 37.3701 615.585 39.1032 615.345 40.6197C614.98 43.1291 614.523 45.2684 613.974 47.0376C613.44 48.7888 612.723 50.1337 611.823 51.0725C610.937 51.9932 609.763 52.4536 608.3 52.4536C607.808 52.4536 607.316 52.3904 606.824 52.264C606.346 52.1376 605.924 51.9842 605.558 51.8037V47.9312C605.882 48.1118 606.24 48.2652 606.634 48.3916C607.042 48.518 607.471 48.5812 607.921 48.5812C608.807 48.5812 609.503 48.1298 610.009 47.2272C610.529 46.3065 610.937 45.142 611.232 43.7339C611.542 42.3257 611.809 40.8815 612.034 39.4011C612.217 38.1735 612.428 36.6209 612.667 34.7434C612.906 32.8658 613.159 30.7356 613.426 28.3526C613.693 25.9515 613.967 23.3879 614.249 20.6619C614.544 17.9359 614.832 15.1286 615.113 12.2401H631.693V51.8307Z" fill="#CACACA" />
  <path d="M639.075 49.0144C639.075 47.7507 639.314 46.8571 639.792 46.3335C640.27 45.7919 640.854 45.5211 641.543 45.5211C642.26 45.5211 642.865 45.7919 643.357 46.3335C643.849 46.8571 644.095 47.7507 644.095 49.0144C644.095 50.2601 643.849 51.1718 643.357 51.7495C642.865 52.3091 642.26 52.589 641.543 52.589C640.854 52.589 640.27 52.3091 639.792 51.7495C639.314 51.1718 639.075 50.2601 639.075 49.0144Z" fill="#CACACA" />
  <path d="M686.07 51.8307H682.484V33.1728H666.285V51.8307H662.699V12.2401H666.285V29.1108H682.484V12.2401H686.07V51.8307Z" fill="#CACACA" />
  <path d="M711.719 51.8307H694.55V12.2401H711.719V16.302H698.135V29.1108H710.939V33.1186H698.135V47.7688H711.719V51.8307Z" fill="#CACACA" />
  <path d="M738.739 35.285L730.724 51.8307H726.527L735.154 34.4455C734.029 33.9942 732.974 33.3533 731.99 32.5228C731.019 31.6743 730.232 30.5099 729.627 29.0295C729.037 27.5492 728.741 25.6536 728.741 23.3428C728.741 19.7321 729.698 16.979 731.61 15.0834C733.536 13.1879 736.398 12.2401 740.195 12.2401H748.653V51.8307H745.067V35.285H738.739ZM745.067 16.1666H740.321C738.62 16.1666 737.178 16.4194 735.997 16.9249C734.83 17.4304 733.944 18.2247 733.34 19.3079C732.735 20.3911 732.433 21.8083 732.433 23.5594C732.433 26.0688 733.079 28.0005 734.373 29.3545C735.667 30.6904 737.643 31.3584 740.3 31.3584H745.067V16.1666Z" fill="#CACACA" />
  <path d="M757.111 12.2401H765.844C769.697 12.2401 772.594 12.9803 774.534 14.4606C776.475 15.941 777.445 18.4594 777.445 22.0159C777.445 23.5504 777.213 24.9315 776.749 26.1591C776.299 27.3687 775.638 28.3706 774.766 29.1649C773.894 29.9593 772.819 30.5099 771.539 30.8168V31.0876C772.889 31.3584 774.084 31.8549 775.125 32.577C776.165 33.2991 776.981 34.3101 777.572 35.6099C778.162 36.9098 778.457 38.5616 778.457 40.5655C778.457 43.0027 778.015 45.0608 777.129 46.7397C776.257 48.4187 775.019 49.6914 773.416 50.558C771.813 51.4065 769.915 51.8307 767.721 51.8307H757.111V12.2401ZM760.697 29.2191H766.603C769.289 29.2191 771.145 28.6504 772.172 27.5131C773.212 26.3757 773.733 24.7148 773.733 22.5304C773.733 20.2737 773.114 18.649 771.876 17.656C770.653 16.6631 768.698 16.1666 766.013 16.1666H760.697V29.2191ZM760.697 33.0915V47.9042H767.109C769.852 47.9042 771.792 47.2181 772.931 45.8461C774.07 44.456 774.64 42.5875 774.64 40.2406C774.64 38.7422 774.379 37.4604 773.859 36.3952C773.353 35.3301 772.523 34.5177 771.37 33.9581C770.231 33.3804 768.705 33.0915 766.793 33.0915H760.697Z" fill="#CACACA" />
  <path d="M806.975 51.8307H803.389V16.302H793.391C793.194 18.324 792.983 20.4362 792.758 22.6387C792.534 24.8412 792.301 27.0347 792.062 29.2191C791.823 31.4035 791.584 33.4706 791.345 35.4204C791.106 37.3701 790.867 39.1032 790.628 40.6197C790.263 43.1291 789.805 45.2684 789.257 47.0376C788.723 48.7888 788.006 50.1337 787.106 51.0725C786.22 51.9932 785.045 52.4536 783.583 52.4536C783.091 52.4536 782.599 52.3904 782.107 52.264C781.628 52.1376 781.207 51.9842 780.841 51.8037V47.9312C781.164 48.1118 781.523 48.2652 781.917 48.3916C782.325 48.518 782.753 48.5812 783.203 48.5812C784.089 48.5812 784.785 48.1298 785.292 47.2272C785.812 46.3065 786.22 45.142 786.515 43.7339C786.824 42.3257 787.091 40.8815 787.317 39.4011C787.499 38.1735 787.71 36.6209 787.949 34.7434C788.188 32.8658 788.441 30.7356 788.709 28.3526C788.976 25.9515 789.25 23.3879 789.531 20.6619C789.827 17.9359 790.115 15.1286 790.396 12.2401H806.975V51.8307Z" fill="#CACACA" />
  <path d="M824.377 35.285L816.362 51.8307H812.164L820.791 34.4455C819.666 33.9942 818.611 33.3533 817.627 32.5228C816.657 31.6743 815.869 30.5099 815.265 29.0295C814.674 27.5492 814.379 25.6536 814.379 23.3428C814.379 19.7321 815.335 16.979 817.247 15.0834C819.174 13.1879 822.036 12.2401 825.832 12.2401H834.291V51.8307H830.705V35.285H824.377ZM830.705 16.1666H825.959C824.257 16.1666 822.816 16.4194 821.635 16.9249C820.468 17.4304 819.582 18.2247 818.977 19.3079C818.372 20.3911 818.07 21.8083 818.07 23.5594C818.07 26.0688 818.717 28.0005 820.011 29.3545C821.304 30.6904 823.28 31.3584 825.938 31.3584H830.705V16.1666Z" fill="#CACACA" />
  <path d="M859.919 51.8307H842.749V12.2401H859.919V16.302H846.335V29.1108H859.138V33.1186H846.335V47.7688H859.919V51.8307Z" fill="#CACACA" />
  <path d="M876.223 51.8307H872.617V16.302H862.914V12.2401H885.884V16.302H876.223V51.8307Z" fill="#CACACA" />
  <path d="M903.729 15.7334C902.027 15.7334 900.494 16.1125 899.13 16.8707C897.78 17.6109 896.627 18.6941 895.671 20.1203C894.729 21.5284 894.005 23.2345 893.499 25.2384C892.992 27.2423 892.739 29.4989 892.739 32.0083C892.739 35.3301 893.14 38.2186 893.942 40.6739C894.757 43.111 895.966 44.9976 897.57 46.3335C899.187 47.6695 901.205 48.3374 903.623 48.3374C905.001 48.3374 906.295 48.193 907.504 47.9042C908.728 47.5973 909.916 47.2181 911.069 46.7668V50.7746C909.944 51.3162 908.763 51.7134 907.525 51.9661C906.288 52.2369 904.818 52.3723 903.117 52.3723C899.981 52.3723 897.359 51.5419 895.249 49.881C893.154 48.202 891.579 45.8371 890.524 42.7861C889.484 39.7351 888.964 36.1335 888.964 31.9812C888.964 28.9844 889.287 26.2494 889.934 23.7761C890.595 21.2847 891.551 19.1364 892.802 17.3311C894.068 15.5258 895.615 14.1357 897.443 13.1608C899.285 12.1679 901.394 11.6714 903.771 11.6714C905.332 11.6714 906.836 11.87 908.285 12.2671C909.733 12.6643 911.041 13.233 912.208 13.9732L910.774 17.8727C909.789 17.295 908.707 16.7985 907.525 16.3833C906.358 15.95 905.093 15.7334 903.729 15.7334Z" fill="#CACACA" />
  <path d="M926.72 35.285L918.705 51.8307H914.507L923.134 34.4455C922.009 33.9942 920.955 33.3533 919.97 32.5228C919 31.6743 918.212 30.5099 917.608 29.0295C917.017 27.5492 916.722 25.6536 916.722 23.3428C916.722 19.7321 917.678 16.979 919.591 15.0834C921.517 13.1879 924.379 12.2401 928.175 12.2401H936.634V51.8307H933.048V35.285H926.72ZM933.048 16.1666H928.302C926.6 16.1666 925.159 16.4194 923.978 16.9249C922.811 17.4304 921.925 18.2247 921.32 19.3079C920.716 20.3911 920.413 21.8083 920.413 23.5594C920.413 26.0688 921.06 28.0005 922.354 29.3545C923.647 30.6904 925.623 31.3584 928.281 31.3584H933.048V16.1666Z" fill="#CACACA" />
  <path d="M969.876 51.8307L959.52 16.7895H959.351C959.407 17.5297 959.456 18.4323 959.498 19.4975C959.541 20.5626 959.576 21.727 959.604 22.9907C959.632 24.2364 959.646 25.5092 959.646 26.809V51.8307H956.313V12.2401H961.629L971.395 45.1691H971.543L981.456 12.2401H986.729V51.8307H983.186V26.484C983.186 25.3106 983.2 24.1371 983.228 22.9637C983.256 21.7722 983.291 20.6529 983.334 19.6058C983.376 18.5406 983.418 17.6199 983.46 16.8436H983.291L972.808 51.8307H969.876Z" fill="#CACACA" />
  <path d="M1012.34 51.8307H995.167V12.2401H1012.34V16.302H998.753V29.1108H1011.56V33.1186H998.753V47.7688H1012.34V51.8307Z" fill="#CACACA" />
  <path d="M1039.72 12.2401V47.7146H1043.51V62.1752H1040.07V51.8307H1018.64V62.1752H1015.21V47.7146H1017.57C1018.62 45.4038 1019.61 42.8132 1020.52 39.9427C1021.45 37.0542 1022.27 34.0393 1022.99 30.8981C1023.72 27.7387 1024.31 24.5704 1024.76 21.393C1025.22 18.2157 1025.52 15.1647 1025.65 12.2401H1039.72ZM1036.15 16.3833H1028.81C1028.68 18.6219 1028.4 21.1222 1027.97 23.8844C1027.53 26.6285 1026.97 29.4448 1026.28 32.3333C1025.6 35.2218 1024.84 37.993 1024 40.6468C1023.17 43.3006 1022.29 45.6565 1021.36 47.7146H1036.15V16.3833Z" fill="#CACACA" />
  <path d="M1048.79 12.2401H1052.14V35.1225C1052.14 35.9891 1052.13 36.9368 1052.12 37.9659C1052.1 38.9769 1052.08 39.9698 1052.05 40.9447C1052.03 41.9195 1051.99 42.8041 1051.95 43.5985C1051.92 44.3928 1051.89 45.0066 1051.86 45.4399H1052.03L1069.2 12.2401H1073.15V51.8307H1069.79V29.2191C1069.79 28.2623 1069.81 27.2513 1069.84 26.1862C1069.86 25.103 1069.89 24.0559 1069.92 23.0449C1069.96 22.0339 1070 21.1313 1070.05 20.3369C1070.09 19.5245 1070.12 18.9017 1070.13 18.4684H1069.94L1052.75 51.8307H1048.79V12.2401Z" fill="#CACACA" />
  <path d="M1108.23 47.7688V62.1752H1104.79V51.8307H1081.56V12.2401H1085.15V47.7146H1100.99V12.2401H1104.53V47.7688H1108.23Z" fill="#CACACA" />
  <path d="M1113.46 12.2401H1116.81V35.1225C1116.81 35.9891 1116.8 36.9368 1116.79 37.9659C1116.77 38.9769 1116.75 39.9698 1116.73 40.9447C1116.7 41.9195 1116.66 42.8041 1116.62 43.5985C1116.59 44.3928 1116.56 45.0066 1116.54 45.4399H1116.7L1133.87 12.2401H1137.82V51.8307H1134.46V29.2191C1134.46 28.2623 1134.48 27.2513 1134.51 26.1862C1134.54 25.103 1134.56 24.0559 1134.59 23.0449C1134.63 22.0339 1134.68 21.1313 1134.72 20.3369C1134.76 19.5245 1134.79 18.9017 1134.8 18.4684H1134.61L1117.42 51.8307H1113.46V12.2401Z" fill="#CACACA" />
  <path d="M1169.61 51.8307H1166.02V33.1728H1149.82V51.8307H1146.23V12.2401H1149.82V29.1108H1166.02V12.2401H1169.61V51.8307Z" fill="#CACACA" />
  <path d="M1191.27 15.7334C1189.57 15.7334 1188.03 16.1125 1186.67 16.8707C1185.32 17.6109 1184.17 18.6941 1183.21 20.1203C1182.27 21.5284 1181.54 23.2345 1181.04 25.2384C1180.53 27.2423 1180.28 29.4989 1180.28 32.0083C1180.28 35.3301 1180.68 38.2186 1181.48 40.6739C1182.3 43.111 1183.51 44.9976 1185.11 46.3335C1186.73 47.6695 1188.74 48.3374 1191.16 48.3374C1192.54 48.3374 1193.83 48.193 1195.04 47.9042C1196.27 47.5973 1197.46 47.2181 1198.61 46.7668V50.7746C1197.48 51.3162 1196.3 51.7134 1195.06 51.9661C1193.83 52.2369 1192.36 52.3723 1190.66 52.3723C1187.52 52.3723 1184.9 51.5419 1182.79 49.881C1180.69 48.202 1179.12 45.8371 1178.06 42.7861C1177.02 39.7351 1176.5 36.1335 1176.5 31.9812C1176.5 28.9844 1176.83 26.2494 1177.47 23.7761C1178.13 21.2847 1179.09 19.1364 1180.34 17.3311C1181.61 15.5258 1183.15 14.1357 1184.98 13.1608C1186.82 12.1679 1188.93 11.6714 1191.31 11.6714C1192.87 11.6714 1194.38 11.87 1195.82 12.2671C1197.27 12.6643 1198.58 13.233 1199.75 13.9732L1198.31 17.8727C1197.33 17.295 1196.25 16.7985 1195.06 16.3833C1193.9 15.95 1192.63 15.7334 1191.27 15.7334Z" fill="#CACACA" />
  <path d="M1227.4 51.8307H1223.06L1208.88 31.7375V51.8307H1205.29V12.2401H1208.88V31.4126L1222.7 12.2401H1226.81L1213.16 31.4667L1227.4 51.8307Z" fill="#CACACA" />
  <path d="M1258.41 31.9812C1258.41 35.0322 1258.1 37.8124 1257.5 40.3218C1256.9 42.8132 1256 44.9615 1254.8 46.7668C1253.62 48.5541 1252.15 49.9352 1250.39 50.91C1248.63 51.8849 1246.59 52.3723 1244.27 52.3723C1241.88 52.3723 1239.8 51.8849 1238.01 50.91C1236.24 49.9352 1234.76 48.5451 1233.58 46.7397C1232.41 44.9344 1231.53 42.7771 1230.94 40.2677C1230.37 37.7583 1230.08 34.9781 1230.08 31.9271C1230.08 27.8832 1230.6 24.3357 1231.64 21.2847C1232.68 18.2337 1234.26 15.8597 1236.36 14.1627C1238.49 12.4657 1241.15 11.6172 1244.34 11.6172C1247.39 11.6172 1249.96 12.4567 1252.04 14.1357C1254.13 15.8146 1255.71 18.1796 1256.78 21.2306C1257.87 24.2635 1258.41 27.8471 1258.41 31.9812ZM1233.85 31.9812C1233.85 35.3391 1234.23 38.2457 1234.97 40.7009C1235.72 43.1562 1236.86 45.0518 1238.39 46.3877C1239.94 47.7236 1241.9 48.3916 1244.27 48.3916C1246.67 48.3916 1248.62 47.7236 1250.14 46.3877C1251.67 45.0518 1252.8 43.1562 1253.53 40.7009C1254.27 38.2457 1254.63 35.3391 1254.63 31.9812C1254.63 26.8722 1253.79 22.8824 1252.12 20.012C1250.46 17.1235 1247.87 15.6792 1244.34 15.6792C1241.95 15.6792 1239.98 16.3381 1238.43 17.656C1236.89 18.9739 1235.73 20.8514 1234.97 23.2886C1234.23 25.7078 1233.85 28.6053 1233.85 31.9812Z" fill="#CACACA" />
  <path d="M1265.33 12.2401H1268.68V35.1225C1268.68 35.9891 1268.67 36.9368 1268.66 37.9659C1268.64 38.9769 1268.62 39.9698 1268.59 40.9447C1268.57 41.9195 1268.53 42.8041 1268.49 43.5985C1268.46 44.3928 1268.43 45.0066 1268.41 45.4399H1268.57L1285.74 12.2401H1289.69V51.8307H1286.33V29.2191C1286.33 28.2623 1286.35 27.2513 1286.38 26.1862C1286.4 25.103 1286.43 24.0559 1286.46 23.0449C1286.5 22.0339 1286.55 21.1313 1286.59 20.3369C1286.63 19.5245 1286.66 18.9017 1286.67 18.4684H1286.48L1269.29 51.8307H1265.33V12.2401ZM1285.87 0C1285.74 1.82337 1285.39 3.34887 1284.79 4.57649C1284.22 5.8041 1283.37 6.73384 1282.24 7.36571C1281.12 7.97951 1279.68 8.28642 1277.92 8.28642C1276.1 8.28642 1274.64 7.98854 1273.53 7.39279C1272.43 6.77898 1271.62 5.85826 1271.08 4.63065C1270.56 3.40303 1270.25 1.85948 1270.16 0H1273.45C1273.6 1.98585 1274.02 3.33984 1274.69 4.06197C1275.37 4.7841 1276.46 5.14516 1277.98 5.14516C1279.33 5.14516 1280.39 4.76604 1281.17 4.00781C1281.94 3.24958 1282.4 1.91364 1282.56 0H1285.87Z" fill="#CACACA" />
  <path d="M1317.38 12.2401C1321.36 12.2401 1324.27 13.242 1326.09 15.2459C1327.94 17.2318 1328.86 20.0842 1328.86 23.8031C1328.86 25.4821 1328.64 27.0798 1328.2 28.5963C1327.78 30.0947 1327.09 31.4216 1326.14 32.577C1325.18 33.7144 1323.92 34.617 1322.36 35.285C1320.81 35.9349 1318.92 36.2598 1316.67 36.2598H1312.91V51.8307H1309.33V12.2401H1317.38ZM1317.05 16.1666H1312.91V32.3062H1316.27C1318.23 32.3062 1319.87 32.0354 1321.18 31.4938C1322.5 30.9522 1323.49 30.0766 1324.15 28.8671C1324.81 27.6394 1325.15 26.0147 1325.15 23.9927C1325.15 21.3569 1324.49 19.3982 1323.18 18.1164C1321.88 16.8166 1319.83 16.1666 1317.05 16.1666Z" fill="#CACACA" />
  <path d="M1352.48 51.8307H1335.31V12.2401H1352.48V16.302H1338.9V29.1108H1351.7V33.1186H1338.9V47.7688H1352.48V51.8307Z" fill="#CACACA" />
  <path d="M1381.42 51.8307H1377.08L1362.9 31.7375V51.8307H1359.32V12.2401H1362.9V31.4126L1376.72 12.2401H1380.83L1367.18 31.4667L1381.42 51.8307Z" fill="#CACACA" />
  <path d="M1412.43 31.9812C1412.43 35.0322 1412.13 37.8124 1411.52 40.3218C1410.92 42.8132 1410.02 44.9615 1408.82 46.7668C1407.64 48.5541 1406.17 49.9352 1404.41 50.91C1402.65 51.8849 1400.62 52.3723 1398.3 52.3723C1395.91 52.3723 1393.82 51.8849 1392.03 50.91C1390.26 49.9352 1388.78 48.5451 1387.6 46.7397C1386.43 44.9344 1385.56 42.7771 1384.96 40.2677C1384.39 37.7583 1384.1 34.9781 1384.1 31.9271C1384.1 27.8832 1384.62 24.3357 1385.66 21.2847C1386.7 18.2337 1388.28 15.8597 1390.39 14.1627C1392.51 12.4657 1395.17 11.6172 1398.36 11.6172C1401.41 11.6172 1403.98 12.4567 1406.06 14.1357C1408.15 15.8146 1409.74 18.1796 1410.8 21.2306C1411.89 24.2635 1412.43 27.8471 1412.43 31.9812ZM1387.88 31.9812C1387.88 35.3391 1388.25 38.2457 1388.99 40.7009C1389.74 43.1562 1390.88 45.0518 1392.41 46.3877C1393.96 47.7236 1395.92 48.3916 1398.3 48.3916C1400.69 48.3916 1402.64 47.7236 1404.16 46.3877C1405.69 45.0518 1406.82 43.1562 1407.56 40.7009C1408.29 38.2457 1408.65 35.3391 1408.65 31.9812C1408.65 26.8722 1407.82 22.8824 1406.14 20.012C1404.48 17.1235 1401.89 15.6792 1398.36 15.6792C1395.97 15.6792 1394 16.3381 1392.45 17.656C1390.91 18.9739 1389.75 20.8514 1388.99 23.2886C1388.25 25.7078 1387.88 28.6053 1387.88 31.9812Z" fill="#CACACA" />
  <path d="M1432.87 51.8307L1422.51 16.7895H1422.34C1422.4 17.5297 1422.45 18.4323 1422.49 19.4975C1422.53 20.5626 1422.57 21.727 1422.59 22.9907C1422.62 24.2364 1422.64 25.5092 1422.64 26.809V51.8307H1419.3V12.2401H1424.62L1434.39 45.1691H1434.53L1444.45 12.2401H1449.72V51.8307H1446.18V26.484C1446.18 25.3106 1446.19 24.1371 1446.22 22.9637C1446.25 21.7722 1446.28 20.6529 1446.32 19.6058C1446.37 18.5406 1446.41 17.6199 1446.45 16.8436H1446.28L1435.8 51.8307H1432.87Z" fill="#CACACA" />
  <path d="M1475.33 51.8307H1458.16V12.2401H1475.33V16.302H1461.74V29.1108H1474.55V33.1186H1461.74V47.7688H1475.33V51.8307Z" fill="#CACACA" />
  <path d="M1505.53 51.8307H1501.95V33.1728H1485.75V51.8307H1482.16V12.2401H1485.75V29.1108H1501.95V12.2401H1505.53V51.8307Z" fill="#CACACA" />
  <path d="M1534.56 12.2401V47.7146H1538.35V62.1752H1534.91V51.8307H1513.48V62.1752H1510.05V47.7146H1512.41C1513.46 45.4038 1514.45 42.8132 1515.36 39.9427C1516.29 37.0542 1517.11 34.0393 1517.83 30.8981C1518.56 27.7387 1519.15 24.5704 1519.6 21.393C1520.07 18.2157 1520.36 15.1647 1520.49 12.2401H1534.56ZM1530.99 16.3833H1523.65C1523.52 18.6219 1523.24 21.1222 1522.81 23.8844C1522.37 26.6285 1521.81 29.4448 1521.12 32.3333C1520.45 35.2218 1519.69 37.993 1518.84 40.6468C1518.01 43.3006 1517.13 45.6565 1516.21 47.7146H1530.99V16.3833Z" fill="#CACACA" />
  <path d="M1562.93 51.8307L1559.13 39.2657H1546.77L1542.99 51.8307H1539.37L1551.43 12.0776H1554.66L1566.64 51.8307H1562.93ZM1558.05 35.1767L1554.45 22.6929C1554.36 22.3679 1554.22 21.8353 1554.03 21.0952C1553.84 20.355 1553.65 19.5877 1553.46 18.7934C1553.26 17.999 1553.1 17.3582 1552.97 16.8707C1552.83 17.6109 1552.68 18.3511 1552.51 19.0913C1552.35 19.8134 1552.2 20.4904 1552.04 21.1222C1551.89 21.7361 1551.75 22.2596 1551.64 22.6929L1547.97 35.1767H1558.05Z" fill="#CACACA" />
  <path d="M1597.58 47.7688V62.1752H1594.14V51.8307H1570.92V12.2401H1574.51V47.7146H1590.35V12.2401H1593.89V47.7688H1597.58Z" fill="#CACACA" />
  <path d="M1602.81 12.2401H1606.17V35.1225C1606.17 35.9891 1606.16 36.9368 1606.15 37.9659C1606.13 38.9769 1606.11 39.9698 1606.08 40.9447C1606.05 41.9195 1606.02 42.8041 1605.98 43.5985C1605.95 44.3928 1605.92 45.0066 1605.89 45.4399H1606.06L1623.23 12.2401H1627.18V51.8307H1623.82V29.2191C1623.82 28.2623 1623.84 27.2513 1623.86 26.1862C1623.89 25.103 1623.92 24.0559 1623.95 23.0449C1623.99 22.0339 1624.03 21.1313 1624.07 20.3369C1624.12 19.5245 1624.15 18.9017 1624.16 18.4684H1623.97L1606.78 51.8307H1602.81V12.2401Z" fill="#CACACA" />
  <path d="M1652.76 51.8307H1635.59V12.2401H1652.76V16.302H1639.18V29.1108H1651.98V33.1186H1639.18V47.7688H1652.76V51.8307Z" fill="#CACACA" />
  <path d="M1659.64 12.2401H1662.99V35.1225C1662.99 35.9891 1662.98 36.9368 1662.97 37.9659C1662.96 38.9769 1662.94 39.9698 1662.91 40.9447C1662.88 41.9195 1662.84 42.8041 1662.8 43.5985C1662.77 44.3928 1662.75 45.0066 1662.72 45.4399H1662.89L1680.06 12.2401H1684V51.8307H1680.65V29.2191C1680.65 28.2623 1680.66 27.2513 1680.69 26.1862C1680.72 25.103 1680.74 24.0559 1680.77 23.0449C1680.82 22.0339 1680.86 21.1313 1680.9 20.3369C1680.94 19.5245 1680.97 18.9017 1680.98 18.4684H1680.79L1663.6 51.8307H1659.64V12.2401ZM1680.18 0C1680.06 1.82337 1679.7 3.34887 1679.11 4.57649C1678.53 5.8041 1677.68 6.73384 1676.55 7.36571C1675.43 7.97951 1673.99 8.28642 1672.23 8.28642C1670.42 8.28642 1668.95 7.98854 1667.84 7.39279C1666.75 6.77898 1665.93 5.85826 1665.4 4.63065C1664.88 3.40303 1664.57 1.85948 1664.47 0H1667.76C1667.91 1.98585 1668.33 3.33984 1669 4.06197C1669.68 4.7841 1670.77 5.14516 1672.29 5.14516C1673.64 5.14516 1674.71 4.76604 1675.48 4.00781C1676.25 3.24958 1676.72 1.91364 1676.87 0H1680.18Z" fill="#CACACA" />
</svg>