<svg width="24" height="24" viewBox="0 0 24 24" fill="none" xmlns="http://www.w3.org/2000/svg">
  <path d="M9 17.625C9.0736 19.4769 10.6169 21.0494 12.6844 20.9988C13.1654 20.9871 13.7599 20.8194 14.9489 20.484C17.8104 19.6769 20.2944 18.3204 20.8904 15.2816C21 14.723 21 14.0944 21 12.8373L21 11.1627C21 9.90561 21 9.27704 20.8904 8.71845C20.2944 5.67963 17.8104 4.32314 14.9489 3.516C13.7599 3.18062 13.1654 3.01293 12.6844 3.00116C10.6169 2.95058 9.0736 4.52305 9 6.37499" stroke="#00A2AC" stroke-width="1.5" stroke-linecap="round" />
  <path d="M14 12H3M14 12C14 11.2998 12.0057 9.99153 11.5 9.5M14 12C14 12.7002 12.0057 14.0085 11.5 14.5" stroke="#00A2AC" stroke-width="1.5" stroke-linecap="round" stroke-linejoin="round" />
</svg>