<svg width="239" height="52" viewBox="0 0 239 52" fill="none" xmlns="http://www.w3.org/2000/svg">
<path d="M145.422 0C125.315 0 109.019 11.6261 109.019 25.9841C109.019 40.3421 125.315 51.9682 145.422 51.9682C165.53 51.9682 181.825 40.3421 181.825 25.9841C181.825 11.6261 165.53 0 145.422 0ZM145.422 39.8656C131.541 39.8656 121.153 32.5596 121.153 26.0159C121.153 19.4722 131.541 12.1662 145.422 12.1662C159.304 12.1662 169.691 19.4722 169.691 26.0159C169.691 32.5596 159.335 39.8656 145.422 39.8656Z" fill="#005BFF"/>
<path d="M26.0159 0C11.6579 0 0.0317654 11.6261 0 25.9841C0 40.3421 11.6262 51.9682 25.9841 52C40.3421 52 51.9683 40.3739 52 26.0159C52 11.6262 40.3739 0 26.0159 0ZM39.8656 25.9841C39.8656 33.6396 33.6714 39.8338 26.0159 39.8656C18.3604 39.8656 12.1344 33.6714 12.1344 26.0159C12.1344 18.3604 18.3287 12.1344 25.9841 12.1344C33.6396 12.1344 39.8656 18.3286 39.8656 25.9841Z" fill="#005BFF"/>
<path d="M99.5211 38.6917H78.9054L105.207 3.97211C106.065 2.82856 105.271 1.17676 103.809 1.17676H66.0086C62.2603 1.17676 59.052 4.60742 59.8461 8.48281C60.4179 11.3417 63.0862 13.2794 66.0086 13.2794H82.9396L56.606 48.0308C55.7484 49.1743 56.5425 50.7944 57.9719 50.7944H99.2988C102.221 50.7944 104.889 48.8567 105.461 45.9978C106.255 42.0906 103.269 38.6917 99.5211 38.6917Z" fill="#005BFF"/>
<path d="M238.272 7.2423V49.0774C238.272 49.4586 238.145 49.8398 237.891 50.1574C237.288 50.9198 236.176 51.0468 235.414 50.4433L202.632 24.4274V44.7573C202.632 48.1879 199.805 50.9198 196.374 50.8245C193.07 50.7292 190.497 47.9021 190.497 44.5985V2.92221C190.497 2.50926 190.624 2.12807 190.878 1.81042C191.482 1.07981 192.594 0.952747 193.324 1.55629L226.106 27.5722V7.40113C226.106 4.09752 228.679 1.30217 231.951 1.17511C235.414 1.04805 238.272 3.81163 238.272 7.2423Z" fill="#005BFF"/>
</svg>
