<svg width="242" height="66" viewBox="0 0 242 66" fill="none" xmlns="http://www.w3.org/2000/svg">
<g clip-path="url(#clip0_513_1458)">
<path fill-rule="evenodd" clip-rule="evenodd" d="M0 33.0398C0 14.8056 14.693 0 32.8834 0C51.0752 0 66.0013 14.7274 66.0013 32.9616C66.0013 51.1956 51.2301 66.0013 33.0398 66.0013C24.3323 66.0013 16.3259 62.5726 10.4168 56.9619L24.3324 44.4945C26.7426 46.3644 29.7739 47.4554 33.0398 47.4554C40.9681 47.4554 47.4214 40.9877 47.4214 33.0398C47.4214 25.0912 40.9681 18.6237 33.0398 18.6237C25.1097 18.6237 18.6579 25.0912 18.6579 33.0398C18.6579 35.7668 19.3571 38.2604 20.6788 40.4422L6.68488 52.9102C2.48686 47.3775 0 40.5206 0 33.0398ZM39.0285 41.2843C38.6327 40.8293 38.7111 40.0709 39.1867 39.6918C41.4023 38.0237 42.6681 35.4459 42.5883 32.7161C42.5883 30.29 41.5603 27.9393 39.7405 26.2715C39.2649 25.8163 39.2649 25.1339 39.7405 24.6793C40.2147 24.2245 40.9267 24.2245 41.4023 24.6793C43.6958 26.802 44.9616 29.6832 44.9616 32.7161C44.9616 36.1282 43.4597 39.3128 40.6903 41.4357C40.5323 41.5875 40.2147 41.6632 39.9783 41.6632C39.5825 41.6632 39.2649 41.5875 39.0285 41.2843Z" fill="#23B250"/>
<path d="M113.783 51.6289C110.13 51.6289 106.954 50.9118 104.256 49.4777C101.593 48.0092 99.4923 46.0799 97.9557 43.6894C96.4532 41.2649 95.5312 38.6184 95.1897 35.7501H88.7356V50.9631H82.845V15.1073H88.7356V30.3205H95.1897C95.5312 27.4178 96.4532 24.7712 97.9557 22.3809C99.4923 19.9905 101.593 18.0782 104.256 16.644C106.954 15.1756 110.13 14.4414 113.783 14.4414C117.813 14.4414 121.245 15.3122 124.079 17.0538C126.948 18.7612 129.099 21.032 130.533 23.8664C131.968 26.7007 132.685 29.757 132.685 33.0352C132.685 36.3134 131.968 39.3696 130.533 42.204C129.099 45.0383 126.948 47.3263 124.079 49.0679C121.245 50.7752 117.813 51.6289 113.783 51.6289ZM100.875 33.0352C100.875 35.3914 101.354 37.5769 102.31 39.5918C103.3 41.5722 104.768 43.1602 106.715 44.3554C108.661 45.5506 111.018 46.1481 113.783 46.1481C116.549 46.1481 118.906 45.5506 120.852 44.3554C122.799 43.1602 124.25 41.5722 125.206 39.5918C126.196 37.5769 126.692 35.3914 126.692 33.0352C126.692 30.6789 126.196 28.5106 125.206 26.5299C124.25 24.5152 122.799 22.9102 120.852 21.7149C118.906 20.5198 116.549 19.9222 113.783 19.9222C111.018 19.9222 108.661 20.5198 106.715 21.7149C104.768 22.9102 103.3 24.5152 102.31 26.5299C101.354 28.5106 100.875 30.6789 100.875 33.0352Z" fill="#3D4546"/>
<path d="M144.04 31.19H135.537V26.375H158.024V31.19H149.521V50.9619H144.04V31.19Z" fill="#3D4546"/>
<path d="M173.955 51.6276C171.394 51.6276 169.055 51.1495 166.938 50.1935C164.821 49.2031 163.13 47.7348 161.867 45.7884C160.637 43.8077 160.023 41.4344 160.023 38.6683C160.023 35.8682 160.637 33.4948 161.867 31.5484C163.096 29.5678 164.667 28.0995 166.579 27.1433C168.491 26.1871 170.455 25.709 172.47 25.709C175.099 25.709 177.302 26.2553 179.078 27.3483C180.887 28.4068 182.219 29.8239 183.073 31.5996C183.961 33.3412 184.405 35.2536 184.405 37.3365C184.405 38.5318 184.285 39.6587 184.046 40.7172H165.503C165.811 42.8004 166.852 44.3712 168.628 45.4297C170.404 46.4542 172.521 46.9665 174.98 46.9665C177.78 46.9665 180.375 46.3859 182.766 45.2249V49.9374C181.639 50.4837 180.307 50.8936 178.77 51.1667C177.234 51.474 175.628 51.6276 173.955 51.6276ZM179.129 36.6194C179.163 36.4828 179.18 36.278 179.18 36.0048C179.18 35.1511 178.958 34.2803 178.514 33.3925C178.104 32.5046 177.404 31.7704 176.414 31.19C175.458 30.5751 174.212 30.2678 172.675 30.2678C170.763 30.2678 169.106 30.8313 167.706 31.9583C166.34 33.085 165.606 34.6389 165.503 36.6194H179.129Z" fill="#3D4546"/>
<path d="M189.622 26.375H195.103V36.1073H199.149L206.218 26.375H212.468L203.554 38.566L213.439 50.9619H207.14L199.047 40.7686H195.103V50.9619H189.622V26.375Z" fill="#3D4546"/>
<path d="M223.645 51.6276C221.254 51.6276 219.223 50.979 217.55 49.6812C215.877 48.3494 215.04 46.4884 215.04 44.0979C215.04 41.2296 216.116 39.1464 218.268 37.8489C220.419 36.5171 222.997 35.8511 226.002 35.8511C228.015 35.8511 230.133 36.0901 232.353 36.5682V35.6974C232.353 34.1266 231.79 32.8631 230.663 31.9069C229.535 30.9509 227.947 30.4728 225.899 30.4728C222.894 30.4728 219.957 31.1046 217.088 32.3681V27.3483C220.299 26.2553 223.44 25.709 226.514 25.709C230.098 25.709 232.883 26.5969 234.863 28.3727C236.843 30.1484 237.833 32.8462 237.833 36.4657V45.2761C237.833 46.4713 238.448 47.0688 239.679 47.0688C240.087 47.0688 240.634 46.9665 241.316 46.7615V50.7057C240.293 51.1155 239.132 51.3203 237.833 51.3203C235.477 51.3203 233.856 50.4155 232.967 48.6056L232.916 48.4519C230.356 50.5691 227.264 51.6276 223.645 51.6276ZM220.675 43.7395C220.675 44.9005 221.118 45.8053 222.007 46.4542C222.894 47.0688 223.987 47.3761 225.284 47.3761C226.617 47.3761 227.898 47.1371 229.127 46.6592C230.356 46.1469 231.431 45.4297 232.353 44.5078V40.3074C230.441 39.8978 228.681 39.6928 227.077 39.6928C225.268 39.6928 223.748 40.0172 222.519 40.6661C221.289 41.315 220.675 42.3394 220.675 43.7395Z" fill="#3D4546"/>
</g>
<defs>
<clipPath id="clip0_513_1458">
<rect width="241.317" height="66.0011" fill="white"/>
</clipPath>
</defs>
</svg>
