<svg width="1684" height="63" fill="none" xmlns="http://www.w3.org/2000/svg"><path d="M0 12.24h3.354v22.883a209.283 209.283 0 0 1-.085 5.822c-.028.974-.063 1.86-.105 2.654a67.067 67.067 0 0 1-.084 1.84h.168l17.17-33.199h3.944v39.59H21.01V29.22c0-.958.014-1.969.042-3.034l.084-3.141c.042-1.011.084-1.914.127-2.708.042-.813.07-1.435.084-1.869h-.19L3.966 51.831H0V12.24Zm56.15 39.59h-3.586V33.174h-16.2V51.83H32.78V12.24h3.585v16.87h16.2V12.24h3.586v39.59Zm23.223-40.159v4.875c3.262.072 5.857.758 7.783 2.058 1.927 1.3 3.312 3.042 4.155 5.226.844 2.185 1.266 4.658 1.266 7.42 0 1.878-.225 3.701-.675 5.47a14.278 14.278 0 0 1-2.194 4.793c-1.012 1.409-2.369 2.546-4.07 3.412-1.688.849-3.776 1.3-6.265 1.354v6.093h-3.544V46.28c-2.545-.054-4.668-.523-6.37-1.408-1.701-.884-3.051-2.04-4.05-3.466a14.223 14.223 0 0 1-2.151-4.766 22.702 22.702 0 0 1-.633-5.335c0-2.004.232-3.881.696-5.632.464-1.77 1.21-3.322 2.236-4.658 1.04-1.354 2.405-2.42 4.092-3.195 1.687-.795 3.748-1.22 6.18-1.273V11.67h3.544Zm-3.544 8.774c-2.334.072-4.204.56-5.61 1.463-1.393.884-2.398 2.12-3.017 3.71-.618 1.588-.928 3.466-.928 5.632 0 2.275.338 4.243 1.013 5.904.689 1.642 1.736 2.924 3.142 3.845 1.42.902 3.22 1.399 5.4 1.49V20.444Zm3.544 0v22.043c2.25-.09 4.078-.605 5.484-1.543 1.406-.94 2.44-2.239 3.1-3.9.662-1.66.992-3.61.992-5.85 0-2.183-.31-4.061-.928-5.632-.619-1.588-1.631-2.816-3.037-3.682-1.392-.885-3.263-1.364-5.611-1.436Zm46.426 11.536c0 3.051-.303 5.831-.907 8.34-.605 2.492-1.505 4.64-2.7 6.446-1.182 1.787-2.651 3.168-4.409 4.143-1.758.975-3.797 1.462-6.117 1.462-2.39 0-4.479-.487-6.264-1.462-1.772-.975-3.249-2.365-4.43-4.17-1.167-1.806-2.046-3.963-2.636-6.472-.577-2.51-.865-5.29-.865-8.34 0-4.045.52-7.592 1.56-10.643 1.041-3.051 2.616-5.425 4.725-7.122 2.124-1.697 4.781-2.546 7.974-2.546 3.051 0 5.617.84 7.698 2.519 2.096 1.679 3.678 4.044 4.746 7.095 1.083 3.032 1.625 6.616 1.625 10.75Zm-24.553 0c0 3.358.373 6.265 1.118 8.72.746 2.455 1.885 4.35 3.417 5.687 1.547 1.336 3.509 2.004 5.885 2.004 2.391 0 4.345-.668 5.864-2.004 1.533-1.336 2.665-3.232 3.396-5.687.731-2.455 1.097-5.362 1.097-8.72 0-5.109-.837-9.099-2.51-11.969-1.659-2.889-4.254-4.333-7.783-4.333-2.391 0-4.36.66-5.907 1.977-1.546 1.318-2.699 3.195-3.459 5.633-.745 2.419-1.118 5.316-1.118 8.692Zm39.486-19.741c3.98 0 6.884 1.002 8.712 3.006 1.842 1.986 2.763 4.838 2.763 8.557 0 1.68-.218 3.277-.654 4.793a10.729 10.729 0 0 1-2.067 3.981c-.956 1.137-2.215 2.04-3.776 2.708-1.547.65-3.445.975-5.695.975h-3.754v15.57h-3.586V12.24h8.057Zm-.337 3.927h-4.134v16.14h3.353c1.969 0 3.607-.272 4.915-.813 1.322-.542 2.313-1.417 2.974-2.627.661-1.228.992-2.852.992-4.874 0-2.636-.654-4.595-1.962-5.877-1.308-1.3-3.354-1.95-6.138-1.95Zm31.829 35.663-10.356-35.04h-.169c.056.74.105 1.642.147 2.707a193.367 193.367 0 0 1 .148 7.312v25.022h-3.333V12.24h5.316l9.766 32.928h.148l9.913-32.929h5.273v39.59h-3.543V26.485c0-1.173.014-2.347.042-3.52a203.085 203.085 0 0 1 .232-6.12h-.169L175.156 51.83h-2.932Zm44.633 0-3.797-12.564H200.7l-3.776 12.565h-3.628l12.065-39.753h3.227l11.981 39.753h-3.712Zm-4.873-16.653-3.606-12.484c-.085-.325-.225-.858-.422-1.598l-.57-2.302c-.197-.794-.358-1.435-.485-1.922-.141.74-.295 1.48-.464 2.22a71.314 71.314 0 0 1-.865 3.601l-3.67 12.485h10.082Zm39.529 12.592v14.406h-3.438V51.831h-23.224V12.24h3.586v35.474h15.841V12.24h3.543v35.53h3.692Zm5.231-35.529h3.354v22.883a211.124 211.124 0 0 1-.085 5.822c-.028.974-.063 1.86-.105 2.654a66.581 66.581 0 0 1-.085 1.84h.169l17.17-33.199h3.944v39.59h-3.354V29.22c0-.958.014-1.969.043-3.034l.084-3.141c.042-1.011.084-1.914.126-2.708a97.01 97.01 0 0 0 .085-1.869h-.19l-17.191 33.363h-3.965V12.24Zm59.524 19.741c0 3.051-.302 5.831-.907 8.34-.605 2.492-1.505 4.64-2.7 6.446-1.181 1.787-2.65 3.168-4.408 4.143-1.758.975-3.797 1.462-6.117 1.462-2.391 0-4.479-.487-6.265-1.462-1.772-.975-3.248-2.365-4.429-4.17-1.167-1.806-2.046-3.963-2.637-6.472-.576-2.51-.865-5.29-.865-8.34 0-4.045.521-7.592 1.561-10.643 1.041-3.051 2.616-5.425 4.725-7.122 2.123-1.697 4.781-2.546 7.973-2.546 3.052 0 5.618.84 7.699 2.519 2.095 1.679 3.677 4.044 4.746 7.095 1.083 3.032 1.624 6.616 1.624 10.75Zm-24.552 0c0 3.358.373 6.265 1.118 8.72.745 2.455 1.884 4.35 3.417 5.687 1.547 1.336 3.508 2.004 5.885 2.004 2.39 0 4.345-.668 5.864-2.004 1.532-1.336 2.664-3.232 3.396-5.687.731-2.455 1.096-5.362 1.096-8.72 0-5.109-.836-9.099-2.51-11.969-1.659-2.889-4.253-4.333-7.783-4.333-2.39 0-4.359.66-5.906 1.977-1.547 1.318-2.7 3.195-3.459 5.633-.745 2.419-1.118 5.316-1.118 8.692Zm54.799 19.849h-3.585V33.174h-16.2V51.83h-3.586V12.24h3.586v16.87h16.2V12.24h3.585v39.59Zm31.851 0h-3.586V33.174h-16.199V51.83h-3.586V12.24h3.586v16.87h16.199V12.24h3.586v39.59Zm8.479 0V12.24h3.586v16.844h4.936c2.784 0 4.999.487 6.644 1.462 1.645.957 2.827 2.284 3.544 3.98.717 1.68 1.075 3.593 1.075 5.742 0 3.538-.871 6.354-2.615 8.449-1.73 2.076-4.451 3.114-8.163 3.114h-9.007Zm3.586-3.926h5.062c2.546 0 4.416-.632 5.611-1.895 1.209-1.264 1.814-3.178 1.814-5.741 0-1.788-.295-3.196-.886-4.225-.576-1.047-1.455-1.787-2.636-2.22-1.168-.452-2.644-.677-4.43-.677h-4.535v14.758Zm20.882 3.927V12.24h3.586v39.59h-3.586Zm12.234-39.591h3.354v22.883a210.18 210.18 0 0 1-.085 5.822c-.028.974-.063 1.86-.105 2.654a67.369 67.369 0 0 1-.084 1.84h.168l17.17-33.199h3.944v39.59h-3.353V29.22c0-.958.014-1.969.042-3.034l.084-3.141c.042-1.011.085-1.914.127-2.708.042-.813.07-1.435.084-1.869h-.19l-17.191 33.363h-3.965V12.24ZM444.092 0c-.127 1.823-.486 3.349-1.076 4.576-.577 1.228-1.427 2.158-2.552 2.79-1.125.614-2.567.92-4.325.92-1.813 0-3.276-.297-4.387-.893-1.097-.614-1.912-1.535-2.447-2.762-.52-1.228-.829-2.772-.928-4.631h3.291c.154 1.986.569 3.34 1.244 4.062.675.722 1.772 1.083 3.291 1.083 1.35 0 2.411-.379 3.185-1.137.773-.758 1.237-2.094 1.392-4.008h3.312Zm23.455 51.83V12.24h22.97v39.59h-3.543V16.303h-15.841v35.529h-3.586Zm58.217-19.849c0 3.051-.303 5.831-.907 8.34-.605 2.492-1.505 4.64-2.7 6.446-1.182 1.787-2.651 3.168-4.409 4.143-1.758.975-3.797 1.462-6.117 1.462-2.39 0-4.478-.487-6.264-1.462-1.772-.975-3.249-2.365-4.43-4.17-1.167-1.806-2.046-3.963-2.636-6.472-.577-2.51-.865-5.29-.865-8.34 0-4.045.52-7.592 1.561-10.643 1.04-3.051 2.615-5.425 4.724-7.122 2.124-1.697 4.781-2.546 7.974-2.546 3.051 0 5.617.84 7.698 2.519 2.096 1.679 3.678 4.044 4.746 7.095 1.083 3.032 1.625 6.616 1.625 10.75Zm-24.553 0c0 3.358.373 6.265 1.118 8.72.746 2.455 1.885 4.35 3.417 5.687 1.547 1.336 3.509 2.004 5.885 2.004 2.391 0 4.345-.668 5.864-2.004 1.533-1.336 2.665-3.232 3.396-5.687.731-2.455 1.097-5.362 1.097-8.72 0-5.109-.837-9.099-2.51-11.969-1.659-2.889-4.254-4.333-7.783-4.333-2.391 0-4.36.66-5.906 1.977-1.547 1.318-2.7 3.195-3.46 5.633-.745 2.419-1.118 5.316-1.118 8.692Zm39.486-19.741c3.98 0 6.884 1.002 8.712 3.006 1.842 1.986 2.763 4.838 2.763 8.557 0 1.68-.218 3.277-.654 4.793a10.729 10.729 0 0 1-2.067 3.981c-.956 1.137-2.215 2.04-3.776 2.708-1.546.65-3.445.975-5.695.975h-3.754v15.57h-3.586V12.24h8.057Zm-.337 3.927h-4.134v16.14h3.353c1.969 0 3.607-.272 4.915-.813 1.322-.542 2.313-1.417 2.974-2.627.661-1.228.992-2.852.992-4.874 0-2.636-.654-4.595-1.962-5.877-1.308-1.3-3.354-1.95-6.138-1.95Zm27.737 35.663h-3.607V16.303h-9.702V12.24h22.97v4.062h-9.661v35.529Zm33.665 0-3.797-12.564h-12.361l-3.775 12.565h-3.628l12.065-39.753h3.227l11.981 39.753h-3.712Zm-4.873-16.653-3.607-12.484c-.084-.325-.225-.858-.422-1.598l-.569-2.302c-.197-.794-.359-1.435-.485-1.922a64.88 64.88 0 0 1-.464 2.22c-.155.722-.31 1.4-.464 2.031a288.81 288.81 0 0 1-.401 1.57l-3.67 12.485h10.082Zm34.804 16.653h-3.586V16.303h-9.998a1362.13 1362.13 0 0 1-.633 6.337 922.231 922.231 0 0 1-.696 6.58 481.72 481.72 0 0 1-.717 6.201c-.239 1.95-.478 3.683-.718 5.2-.365 2.51-.822 4.648-1.371 6.418-.534 1.75-1.251 3.096-2.151 4.035-.886.92-2.06 1.38-3.523 1.38-.492 0-.984-.063-1.476-.189-.478-.126-.9-.28-1.266-.46V47.93c.324.18.682.334 1.076.46.408.127.837.19 1.287.19.886 0 1.582-.451 2.088-1.354.52-.92.928-2.085 1.223-3.493.31-1.408.577-2.852.802-4.333.183-1.228.394-2.78.633-4.658.239-1.877.492-4.007.759-6.39.267-2.402.541-4.965.823-7.691.295-2.726.583-5.533.864-8.422h16.58v39.59Zm7.382-2.816c0-1.263.239-2.157.717-2.68.478-.542 1.062-.813 1.751-.813.717 0 1.322.27 1.814.813.492.523.738 1.417.738 2.68 0 1.246-.246 2.158-.738 2.735-.492.56-1.097.84-1.814.84-.689 0-1.273-.28-1.751-.84-.478-.577-.717-1.489-.717-2.735Zm46.995 2.816h-3.586V33.174h-16.199V51.83h-3.586V12.24h3.586v16.87h16.199V12.24h3.586v39.59Zm25.649 0H694.55V12.24h17.169v4.062h-13.584v12.809h12.804v4.008h-12.804v14.65h13.584v4.062Zm27.02-16.545-8.015 16.546h-4.197l8.627-17.386a11.573 11.573 0 0 1-3.164-1.922c-.971-.849-1.758-2.013-2.363-3.494-.59-1.48-.886-3.375-.886-5.686 0-3.61.957-6.364 2.869-8.26 1.926-1.895 4.788-2.843 8.585-2.843h8.458v39.59h-3.586V35.286h-6.328Zm6.328-19.118h-4.746c-1.701 0-3.143.252-4.324.758-1.167.505-2.053 1.3-2.657 2.383-.605 1.083-.907 2.5-.907 4.251 0 2.51.646 4.441 1.94 5.796 1.294 1.335 3.27 2.003 5.927 2.003h4.767V16.167Zm12.044-3.927h8.733c3.853 0 6.75.74 8.69 2.22 1.941 1.481 2.911 4 2.911 7.556 0 1.534-.232 2.916-.696 4.143-.45 1.21-1.111 2.212-1.983 3.006-.872.794-1.947 1.345-3.227 1.652v.27c1.35.271 2.545.768 3.586 1.49 1.04.722 1.856 1.733 2.447 3.033.59 1.3.885 2.952.885 4.956 0 2.437-.442 4.495-1.328 6.174-.872 1.679-2.11 2.951-3.713 3.818-1.603.849-3.501 1.273-5.695 1.273h-10.61V12.24Zm3.586 16.98h5.906c2.686 0 4.542-.57 5.569-1.707 1.04-1.137 1.561-2.798 1.561-4.983 0-2.256-.619-3.881-1.857-4.874-1.223-.993-3.178-1.49-5.863-1.49h-5.316V29.22Zm0 3.872v14.812h6.412c2.743 0 4.683-.686 5.822-2.058 1.139-1.39 1.709-3.258 1.709-5.605 0-1.499-.261-2.78-.781-3.846-.506-1.065-1.336-1.877-2.489-2.437-1.139-.578-2.665-.866-4.577-.866h-6.096Zm46.278 18.738h-3.586V16.303h-9.998a1362.13 1362.13 0 0 1-.633 6.337 867.708 867.708 0 0 1-.696 6.58 481.72 481.72 0 0 1-.717 6.201 154.72 154.72 0 0 1-.717 5.2c-.365 2.51-.823 4.648-1.371 6.418-.534 1.75-1.251 3.096-2.151 4.035-.886.92-2.061 1.38-3.523 1.38-.492 0-.984-.063-1.476-.189a6.77 6.77 0 0 1-1.266-.46V47.93c.323.18.682.334 1.076.46.408.127.836.19 1.286.19.886 0 1.582-.451 2.089-1.354.52-.92.928-2.085 1.223-3.493.309-1.408.576-2.852.802-4.333.182-1.228.393-2.78.632-4.658.239-1.877.492-4.007.76-6.39.267-2.402.541-4.965.822-7.691.296-2.726.584-5.533.865-8.422h16.579v39.59Zm17.402-16.545-8.015 16.546h-4.198l8.627-17.386a11.573 11.573 0 0 1-3.164-1.922c-.97-.849-1.758-2.013-2.362-3.494-.591-1.48-.886-3.375-.886-5.686 0-3.61.956-6.364 2.868-8.26 1.927-1.895 4.789-2.843 8.585-2.843h8.459v39.59h-3.586V35.286h-6.328Zm6.328-19.118h-4.746c-1.702 0-3.143.252-4.324.758-1.167.505-2.053 1.3-2.658 2.383s-.907 2.5-.907 4.251c0 2.51.647 4.441 1.941 5.796 1.293 1.335 3.269 2.003 5.927 2.003h4.767V16.167Zm29.214 35.663h-17.17V12.24h17.17v4.062h-13.584v12.809h12.803v4.008h-12.803v14.65h13.584v4.062Zm16.304 0h-3.606V16.303h-9.703V12.24h22.97v4.062h-9.661v35.529Zm27.506-36.097c-1.702 0-3.235.38-4.599 1.138-1.35.74-2.503 1.823-3.459 3.25-.942 1.407-1.666 3.114-2.172 5.117-.507 2.004-.76 4.26-.76 6.77 0 3.322.401 6.21 1.203 8.666.815 2.437 2.024 4.324 3.628 5.66 1.617 1.335 3.635 2.003 6.053 2.003a16.67 16.67 0 0 0 3.881-.433 29.358 29.358 0 0 0 3.565-1.137v4.008a15.097 15.097 0 0 1-3.544 1.191c-1.237.27-2.707.406-4.408.406-3.136 0-5.758-.83-7.868-2.491-2.095-1.679-3.67-4.044-4.725-7.095-1.04-3.05-1.56-6.653-1.56-10.805 0-2.997.323-5.732.97-8.205.661-2.491 1.617-4.64 2.868-6.445 1.266-1.805 2.813-3.195 4.641-4.17 1.842-.993 3.951-1.49 6.328-1.49 1.561 0 3.065.199 4.514.596 1.448.397 2.756.966 3.923 1.706l-1.434 3.9a18.562 18.562 0 0 0-3.249-1.49c-1.167-.433-2.432-.65-3.796-.65Zm22.991 19.552-8.015 16.546h-4.198l8.627-17.386a11.588 11.588 0 0 1-3.164-1.922c-.97-.849-1.758-2.013-2.362-3.494-.591-1.48-.886-3.375-.886-5.686 0-3.61.956-6.364 2.869-8.26 1.926-1.895 4.788-2.843 8.584-2.843h8.459v39.59h-3.586V35.286h-6.328Zm6.328-19.118h-4.746c-1.702 0-3.143.252-4.324.758-1.167.505-2.053 1.3-2.658 2.383-.604 1.083-.907 2.5-.907 4.251 0 2.51.647 4.441 1.941 5.796 1.293 1.335 3.269 2.003 5.927 2.003h4.767V16.167Zm36.828 35.663L959.52 16.79h-.169c.056.74.105 1.642.147 2.707a193.367 193.367 0 0 1 .148 7.312v25.022h-3.333V12.24h5.316l9.766 32.928h.148l9.913-32.929h5.273v39.59h-3.543V26.485c0-1.173.014-2.347.042-3.52.028-1.192.063-2.311.106-3.358.042-1.065.084-1.986.126-2.762h-.169L972.808 51.83h-2.932Zm42.464 0h-17.173V12.24h17.173v4.062h-13.587v12.809h12.807v4.008h-12.807v14.65h13.587v4.062Zm27.38-39.59v35.475h3.79v14.46h-3.44V51.831h-21.43v10.344h-3.43v-14.46h2.36c1.05-2.311 2.04-4.902 2.95-7.772.93-2.889 1.75-5.904 2.47-9.045.73-3.16 1.32-6.328 1.77-9.505.46-3.177.76-6.228.89-9.153h14.07Zm-3.57 4.143h-7.34c-.13 2.239-.41 4.74-.84 7.501-.44 2.744-1 5.56-1.69 8.45-.68 2.888-1.44 5.659-2.28 8.313-.83 2.654-1.71 5.01-2.64 7.068h14.79V16.383Zm12.64-4.143h3.35v22.883c0 .866-.01 1.814-.02 2.843-.02 1.01-.04 2.004-.07 2.979-.02.974-.06 1.86-.1 2.654-.03.794-.06 1.408-.09 1.84h.17l17.17-33.199h3.95v39.59h-3.36V29.22c0-.958.02-1.969.05-3.034.02-1.083.05-2.13.08-3.141.04-1.011.08-1.914.13-2.708.04-.813.07-1.435.08-1.869h-.19l-17.19 33.363h-3.96V12.24Zm59.44 35.529v14.406h-3.44V51.831h-23.23V12.24h3.59v35.474h15.84V12.24h3.54v35.53h3.7Zm5.23-35.529h3.35v22.883c0 .866-.01 1.814-.02 2.843l-.06 2.979c-.03.974-.07 1.86-.11 2.654-.03.794-.06 1.408-.08 1.84h.16l17.17-33.199h3.95v39.59h-3.36V29.22c0-.958.02-1.969.05-3.034.03-1.083.05-2.13.08-3.141.04-1.011.09-1.914.13-2.708.04-.813.07-1.435.08-1.869h-.19l-17.19 33.363h-3.96V12.24Zm56.15 39.59h-3.59V33.174h-16.2V51.83h-3.59V12.24h3.59v16.87h16.2V12.24h3.59v39.59Zm21.66-36.097c-1.7 0-3.24.38-4.6 1.138-1.35.74-2.5 1.823-3.46 3.25-.94 1.407-1.67 3.114-2.17 5.117-.51 2.004-.76 4.26-.76 6.77 0 3.322.4 6.21 1.2 8.666.82 2.437 2.03 4.324 3.63 5.66 1.62 1.335 3.63 2.003 6.05 2.003 1.38 0 2.67-.144 3.88-.433 1.23-.307 2.42-.686 3.57-1.137v4.008a15.19 15.19 0 0 1-3.55 1.191c-1.23.27-2.7.406-4.4.406-3.14 0-5.76-.83-7.87-2.491-2.1-1.679-3.67-4.044-4.73-7.095-1.04-3.05-1.56-6.653-1.56-10.805 0-2.997.33-5.732.97-8.205.66-2.491 1.62-4.64 2.87-6.445 1.27-1.805 2.81-3.195 4.64-4.17 1.84-.993 3.95-1.49 6.33-1.49 1.56 0 3.07.199 4.51.596 1.45.397 2.76.966 3.93 1.706l-1.44 3.9a18.144 18.144 0 0 0-3.25-1.49c-1.16-.433-2.43-.65-3.79-.65Zm36.13 36.097h-4.34l-14.18-20.092V51.83h-3.59V12.24h3.59v19.172l13.82-19.173h4.11l-13.65 19.227 14.24 20.364Zm31.01-19.849c0 3.051-.31 5.831-.91 8.34-.6 2.492-1.5 4.64-2.7 6.446-1.18 1.787-2.65 3.168-4.41 4.143-1.76.975-3.8 1.462-6.12 1.462-2.39 0-4.47-.487-6.26-1.462-1.77-.975-3.25-2.365-4.43-4.17-1.17-1.806-2.05-3.963-2.64-6.472-.57-2.51-.86-5.29-.86-8.34 0-4.045.52-7.592 1.56-10.643 1.04-3.051 2.62-5.425 4.72-7.122 2.13-1.697 4.79-2.546 7.98-2.546 3.05 0 5.62.84 7.7 2.519 2.09 1.679 3.67 4.044 4.74 7.095 1.09 3.032 1.63 6.616 1.63 10.75Zm-24.56 0c0 3.358.38 6.265 1.12 8.72.75 2.455 1.89 4.35 3.42 5.687 1.55 1.336 3.51 2.004 5.88 2.004 2.4 0 4.35-.668 5.87-2.004 1.53-1.336 2.66-3.232 3.39-5.687.74-2.455 1.1-5.362 1.1-8.72 0-5.109-.84-9.099-2.51-11.969-1.66-2.889-4.25-4.333-7.78-4.333-2.39 0-4.36.66-5.91 1.977-1.54 1.318-2.7 3.195-3.46 5.633-.74 2.419-1.12 5.316-1.12 8.692Zm31.48-19.741h3.35v22.883c0 .866-.01 1.814-.02 2.843-.02 1.01-.04 2.004-.07 2.979-.02.974-.06 1.86-.1 2.654-.03.794-.06 1.408-.08 1.84h.16l17.17-33.199h3.95v39.59h-3.36V29.22c0-.958.02-1.969.05-3.034.02-1.083.05-2.13.08-3.141.04-1.011.09-1.914.13-2.708.04-.813.07-1.435.08-1.869h-.19l-17.19 33.363h-3.96V12.24ZM1285.87 0c-.13 1.823-.48 3.349-1.08 4.576-.57 1.228-1.42 2.158-2.55 2.79-1.12.614-2.56.92-4.32.92-1.82 0-3.28-.297-4.39-.893-1.1-.614-1.91-1.535-2.45-2.762-.52-1.228-.83-2.772-.92-4.631h3.29c.15 1.986.57 3.34 1.24 4.062.68.722 1.77 1.083 3.29 1.083 1.35 0 2.41-.379 3.19-1.137.77-.758 1.23-2.094 1.39-4.008h3.31Zm31.51 12.24c3.98 0 6.89 1.002 8.71 3.006 1.85 1.986 2.77 4.838 2.77 8.557 0 1.68-.22 3.277-.66 4.793a10.774 10.774 0 0 1-2.06 3.981c-.96 1.137-2.22 2.04-3.78 2.708-1.55.65-3.44.975-5.69.975h-3.76v15.57h-3.58V12.24h8.05Zm-.33 3.927h-4.14v16.14h3.36c1.96 0 3.6-.272 4.91-.813 1.32-.542 2.31-1.417 2.97-2.627.66-1.228 1-2.852 1-4.874 0-2.636-.66-4.595-1.97-5.877-1.3-1.3-3.35-1.95-6.13-1.95Zm35.43 35.663h-17.17V12.24h17.17v4.062h-13.58v12.809h12.8v4.008h-12.8v14.65h13.58v4.062Zm28.94 0h-4.34l-14.18-20.092V51.83h-3.58V12.24h3.58v19.172l13.82-19.173h4.11l-13.65 19.227 14.24 20.364Zm31.01-19.849c0 3.051-.3 5.831-.91 8.34-.6 2.492-1.5 4.64-2.7 6.446-1.18 1.787-2.65 3.168-4.41 4.143-1.76.975-3.79 1.462-6.11 1.462-2.39 0-4.48-.487-6.27-1.462-1.77-.975-3.25-2.365-4.43-4.17-1.17-1.806-2.04-3.963-2.64-6.472-.57-2.51-.86-5.29-.86-8.34 0-4.045.52-7.592 1.56-10.643 1.04-3.051 2.62-5.425 4.73-7.122 2.12-1.697 4.78-2.546 7.97-2.546 3.05 0 5.62.84 7.7 2.519 2.09 1.679 3.68 4.044 4.74 7.095 1.09 3.032 1.63 6.616 1.63 10.75Zm-24.55 0c0 3.358.37 6.265 1.11 8.72.75 2.455 1.89 4.35 3.42 5.687 1.55 1.336 3.51 2.004 5.89 2.004 2.39 0 4.34-.668 5.86-2.004 1.53-1.336 2.66-3.232 3.4-5.687.73-2.455 1.09-5.362 1.09-8.72 0-5.109-.83-9.099-2.51-11.969-1.66-2.889-4.25-4.333-7.78-4.333-2.39 0-4.36.66-5.91 1.977-1.54 1.318-2.7 3.195-3.46 5.633-.74 2.419-1.11 5.316-1.11 8.692Zm44.99 19.849-10.36-35.04h-.17c.06.74.11 1.642.15 2.707.04 1.066.08 2.23.1 3.494.03 1.245.05 2.518.05 3.818v25.022h-3.34V12.24h5.32l9.77 32.928h.14l9.92-32.929h5.27v39.59h-3.54V26.485c0-1.173.01-2.347.04-3.52.03-1.192.06-2.311.1-3.358.05-1.065.09-1.986.13-2.762h-.17L1435.8 51.83h-2.93Zm42.46 0h-17.17V12.24h17.17v4.062h-13.59v12.809h12.81v4.008h-12.81v14.65h13.59v4.062Zm30.2 0h-3.58V33.174h-16.2V51.83h-3.59V12.24h3.59v16.87h16.2V12.24h3.58v39.59Zm29.03-39.59v35.475h3.79v14.46h-3.44V51.831h-21.43v10.344h-3.43v-14.46h2.36c1.05-2.311 2.04-4.902 2.95-7.772.93-2.889 1.75-5.904 2.47-9.045.73-3.16 1.32-6.328 1.77-9.505a89.8 89.8 0 0 0 .89-9.153h14.07Zm-3.57 4.143h-7.34c-.13 2.239-.41 4.74-.84 7.501-.44 2.744-1 5.56-1.69 8.45a105.13 105.13 0 0 1-2.28 8.313c-.83 2.654-1.71 5.01-2.63 7.068h14.78V16.383Zm31.94 35.447-3.8-12.564h-12.36l-3.78 12.565h-3.62l12.06-39.753h3.23l11.98 39.753h-3.71Zm-4.88-16.653-3.6-12.484a144.101 144.101 0 0 1-.99-3.9c-.2-.794-.36-1.435-.49-1.922-.14.74-.29 1.48-.46 2.22-.16.722-.31 1.4-.47 2.031-.15.614-.29 1.138-.4 1.57l-3.67 12.485h10.08Zm39.53 12.592v14.406h-3.44V51.831h-23.22V12.24h3.59v35.474h15.84V12.24h3.54v35.53h3.69Zm5.23-35.529h3.36v22.883c0 .866-.01 1.814-.02 2.843-.02 1.01-.04 2.004-.07 2.979-.03.974-.06 1.86-.1 2.654-.03.794-.06 1.408-.09 1.84h.17l17.17-33.199h3.95v39.59h-3.36V29.22c0-.958.02-1.969.04-3.034.03-1.083.06-2.13.09-3.141.04-1.011.08-1.914.12-2.708.05-.813.08-1.435.09-1.869h-.19l-17.19 33.363h-3.97V12.24Zm49.95 39.59h-17.17V12.24h17.17v4.062h-13.58v12.809h12.8v4.008h-12.8v14.65h13.58v4.062Zm6.88-39.59h3.35v22.883c0 .866-.01 1.814-.02 2.843a134.32 134.32 0 0 1-.17 5.633c-.03.794-.05 1.408-.08 1.84h.17l17.17-33.199h3.94v39.59h-3.35V29.22c0-.958.01-1.969.04-3.034.03-1.083.05-2.13.08-3.141.05-1.011.09-1.914.13-2.708.04-.813.07-1.435.08-1.869h-.19l-17.19 33.363h-3.96V12.24ZM1680.18 0c-.12 1.823-.48 3.349-1.07 4.576-.58 1.228-1.43 2.158-2.56 2.79-1.12.614-2.56.92-4.32.92-1.81 0-3.28-.297-4.39-.893-1.09-.614-1.91-1.535-2.44-2.762-.52-1.228-.83-2.772-.93-4.631h3.29c.15 1.986.57 3.34 1.24 4.062.68.722 1.77 1.083 3.29 1.083 1.35 0 2.42-.379 3.19-1.137s1.24-2.094 1.39-4.008h3.31Z" fill="#CACACA"/></svg>