<svg width="239" height="52" fill="none" xmlns="http://www.w3.org/2000/svg"><path d="M145.422 0c-20.107 0-36.403 11.626-36.403 25.984 0 14.358 16.296 25.984 36.403 25.984 20.108 0 36.403-11.626 36.403-25.984C181.825 11.626 165.53 0 145.422 0Zm0 39.866c-13.881 0-24.269-7.306-24.269-13.85s10.388-13.85 24.269-13.85c13.882 0 24.269 7.306 24.269 13.85s-10.356 13.85-24.269 13.85ZM26.016 0C11.658 0 .032 11.626 0 25.984 0 40.342 11.626 51.968 25.984 52 40.342 52 51.968 40.374 52 26.016 52 11.626 40.374 0 26.016 0Zm13.85 25.984c0 7.656-6.195 13.85-13.85 13.882-7.656 0-13.882-6.195-13.882-13.85 0-7.656 6.195-13.882 13.85-13.882 7.656 0 13.882 6.195 13.882 13.85Zm59.655 12.708H78.905l26.302-34.72c.858-1.143.064-2.795-1.398-2.795h-37.8c-3.749 0-6.957 3.43-6.163 7.306.572 2.859 3.24 4.796 6.163 4.796h16.93L56.607 48.031c-.858 1.143-.064 2.763 1.366 2.763H99.3c2.922 0 5.59-1.937 6.162-4.796.794-3.907-2.192-7.306-5.94-7.306Zm138.751-31.45v41.835a1.765 1.765 0 0 1-2.858 1.366l-32.782-26.016v20.33c0 3.43-2.827 6.163-6.258 6.068-3.304-.096-5.877-2.923-5.877-6.227V2.922c0-.413.127-.794.381-1.112.604-.73 1.716-.857 2.446-.254l32.782 26.016V7.402c0-3.304 2.573-6.1 5.845-6.227 3.463-.127 6.321 2.637 6.321 6.067Z" fill="#005BFF"/></svg>