<svg width="242" height="66" fill="none" xmlns="http://www.w3.org/2000/svg"><g clip-path="url(#a)"><path fill-rule="evenodd" clip-rule="evenodd" d="M0 33.04C0 14.806 14.693 0 32.883 0c18.192 0 33.118 14.727 33.118 32.962 0 18.234-14.77 33.04-32.961 33.04a32.826 32.826 0 0 1-22.623-9.04l13.915-12.468a14.162 14.162 0 0 0 8.708 2.961c7.928 0 14.381-6.467 14.381-14.415 0-7.949-6.453-14.416-14.381-14.416-7.93 0-14.382 6.467-14.382 14.416 0 2.727.7 5.22 2.02 7.402L6.686 52.91A32.701 32.701 0 0 1 0 33.04Zm39.029 8.244c-.396-.455-.318-1.213.158-1.592 2.215-1.668 3.481-4.246 3.401-6.976a8.765 8.765 0 0 0-2.848-6.445c-.475-.455-.475-1.137 0-1.592a1.183 1.183 0 0 1 1.662 0c2.294 2.123 3.56 5.004 3.56 8.037 0 3.412-1.502 6.597-4.272 8.72-.158.151-.475.227-.712.227-.395 0-.713-.075-.95-.379Z" fill="#23B250"/><path d="M113.783 51.629c-3.653 0-6.829-.717-9.527-2.151-2.663-1.469-4.764-3.398-6.3-5.789a19.197 19.197 0 0 1-2.766-7.939h-6.454v15.213h-5.891V15.107h5.89V30.32h6.455c.341-2.902 1.263-5.549 2.766-7.94 1.536-2.39 3.637-4.302 6.3-5.736 2.698-1.468 5.874-2.203 9.527-2.203 4.03 0 7.462.871 10.296 2.613 2.869 1.707 5.02 3.978 6.454 6.812 1.435 2.835 2.152 5.891 2.152 9.17 0 3.277-.717 6.334-2.152 9.168-1.434 2.834-3.585 5.122-6.454 6.864-2.834 1.707-6.266 2.56-10.296 2.56Zm-12.908-18.594c0 2.356.479 4.542 1.435 6.557.99 1.98 2.458 3.568 4.405 4.763 1.946 1.196 4.303 1.793 7.068 1.793 2.766 0 5.123-.597 7.069-1.793 1.947-1.195 3.398-2.783 4.354-4.763.99-2.015 1.486-4.2 1.486-6.557 0-2.356-.496-4.524-1.486-6.505-.956-2.015-2.407-3.62-4.354-4.815-1.946-1.195-4.303-1.793-7.069-1.793-2.765 0-5.122.598-7.068 1.793-1.947 1.195-3.415 2.8-4.405 4.815-.956 1.98-1.435 4.149-1.435 6.505Zm43.165-1.845h-8.503v-4.815h22.487v4.815h-8.503v19.772h-5.481V31.19Zm29.915 20.438c-2.561 0-4.9-.478-7.017-1.434a11.976 11.976 0 0 1-5.071-4.406c-1.23-1.98-1.844-4.354-1.844-7.12 0-2.8.614-5.173 1.844-7.12 1.229-1.98 2.8-3.448 4.712-4.405 1.912-.956 3.876-1.434 5.891-1.434 2.629 0 4.832.546 6.608 1.64 1.809 1.058 3.141 2.475 3.995 4.25.888 1.742 1.332 3.655 1.332 5.738 0 1.195-.12 2.322-.359 3.38h-18.543c.308 2.083 1.349 3.654 3.125 4.713 1.776 1.024 3.893 1.537 6.352 1.537 2.8 0 5.395-.581 7.786-1.742v4.712c-1.127.547-2.459.957-3.996 1.23-1.536.307-3.142.46-4.815.46Zm5.174-15.009c.034-.136.051-.341.051-.614 0-.854-.222-1.725-.666-2.613-.41-.887-1.11-1.622-2.1-2.202-.956-.615-2.202-.922-3.739-.922-1.912 0-3.569.563-4.969 1.69-1.366 1.127-2.1 2.68-2.203 4.661h13.626Zm10.493-10.244h5.481v9.732h4.046l7.069-9.732h6.25l-8.914 12.191 9.885 12.396h-6.299l-8.093-10.193h-3.944v10.193h-5.481V26.375Zm34.023 25.253c-2.391 0-4.422-.649-6.095-1.947-1.673-1.332-2.51-3.193-2.51-5.583 0-2.868 1.076-4.952 3.228-6.25 2.151-1.33 4.729-1.997 7.734-1.997 2.013 0 4.131.24 6.351.717v-.87c0-1.571-.563-2.835-1.69-3.791-1.128-.956-2.716-1.434-4.764-1.434-3.005 0-5.942.632-8.811 1.895v-5.02c3.211-1.093 6.352-1.639 9.426-1.639 3.584 0 6.369.888 8.349 2.664 1.98 1.775 2.97 4.473 2.97 8.093v8.81c0 1.195.615 1.793 1.846 1.793.408 0 .955-.102 1.637-.308v3.945c-1.023.41-2.184.614-3.483.614-2.356 0-3.977-.904-4.866-2.714l-.051-.154c-2.56 2.117-5.652 3.176-9.271 3.176Zm-2.97-7.889c0 1.162.443 2.066 1.332 2.715.887.615 1.98.922 3.277.922a10.51 10.51 0 0 0 3.843-.717 9.901 9.901 0 0 0 3.226-2.151v-4.2c-1.912-.41-3.672-.615-5.276-.615-1.809 0-3.329.324-4.558.973-1.23.649-1.844 1.673-1.844 3.074Z" fill="#3D4546"/></g><defs><clipPath id="a"><path fill="#fff" d="M0 0h241.317v66.001H0z"/></clipPath></defs></svg>