<svg width="72" height="72" fill="none" xmlns="http://www.w3.org/2000/svg"><path d="m47.236.347 14.5 16.5.253.287-.004.383-.07 7.483H63a5 5 0 0 1 5 5v20a5 5 0 0 1-5 5h-1.368l-.128 13.535a3 3 0 0 1-3 2.972H13.47a3 3 0 0 1-3-2.979L10.373 55H9a5 5 0 0 1-5-5V30a5 5 0 0 1 5-5h1.155L10 3.5A3 3 0 0 1 12.957.479L46.472.007l.46-.007.304.347ZM12.471 68.514a1 1 0 0 0 1 .993h45.033a1 1 0 0 0 1-.99L59.632 55H12.373l.098 13.514Zm46.896-32.741c-1.507 0-2.364.725-3.052 1.563v-1.34h-3.537v13.046h3.537v-4.206c.67.763 1.545 1.452 3.07 1.452 2.383 0 4.448-1.991 4.448-5.266v-.039c0-3.219-2.084-5.21-4.466-5.21Zm-26.488 0c-2.978 0-5.081 2.345-5.081 5.267v.037c0 3.108 2.234 5.23 5.397 5.23 2.01 0 3.387-.801 4.355-2.048l-1.954-1.618c-.726.725-1.36 1.023-2.234 1.023-1.116 0-1.897-.54-2.177-1.656h6.737c.019-.242.018-.503.018-.727 0-2.959-1.6-5.508-5.061-5.508ZM16.598 33l-2.512 7.574-2.27-7.537H8l4.354 13.12H15.5l2.624-7.5 2.606 7.5h3.145l4.355-13.12h-3.74l-2.271 7.537L19.706 33h-3.108Zm23.082.037v13.028h6.718c3.127 0 4.932-1.34 4.932-3.592v-.038c0-1.767-1.005-2.661-2.587-3.182 1.173-.503 2.01-1.396 2.01-2.903v-.038c0-.892-.316-1.581-.837-2.12-.763-.745-1.917-1.155-3.555-1.155H39.68Zm18.626 5.677c1.116 0 2.066.949 2.066 2.289v.037c0 1.358-.95 2.29-2.066 2.29-1.154-.001-2.066-.95-2.066-2.29v-.037c0-1.34.912-2.289 2.066-2.29ZM45.95 40.76c1.21 0 1.768.446 1.769 1.172v.037c0 .763-.614 1.191-1.73 1.191h-2.793v-2.4h2.754Zm-13.07-2.382c.968 0 1.637.708 1.768 1.824H31.13c.205-1.116.8-1.824 1.749-1.824Zm12.68-2.438c1.098 0 1.638.373 1.638 1.117v.038c0 .762-.614 1.135-1.73 1.135h-2.27v-2.29h2.362ZM12.985 2.48A1 1 0 0 0 12 3.486L12.155 25h47.76l.06-6.493h-11.49a3 3 0 0 1-3-3V2.02l-32.5.458Zm35.216 13.986c.09.026.186.042.284.042h.638l-.922-.042Z" fill="#3D4546"/></svg>