<svg width="72" height="72" fill="none" xmlns="http://www.w3.org/2000/svg"><path d="m47.236.347 14.5 16.5.253.287-.004.383-.07 7.483H63a5 5 0 0 1 5 5v20a5 5 0 0 1-5 5h-1.368l-.128 13.535a3 3 0 0 1-3 2.972H13.47a3 3 0 0 1-3-2.979L10.373 55H9a5 5 0 0 1-5-5V30a5 5 0 0 1 5-5h1.155L10 3.5A3 3 0 0 1 12.957.479L46.472.007l.46-.007.304.347ZM12.471 68.514a1 1 0 0 0 1 .993h45.033a1 1 0 0 0 1-.99L59.632 55H12.373l.098 13.514ZM55.12 31c-5.501 0-9.576 4.075-9.576 9.27v.051c0 5.425 4.1 9.219 9.678 9.219 3.285 0 5.832-1.172 7.742-2.776v-7.996h-8.176v3.616h3.49v2.165c-.714.484-1.631.738-2.853.738-2.827 0-4.838-2.063-4.838-4.966v-.051c0-2.725 2.012-4.865 4.559-4.865 1.807 0 3.005.587 4.303 1.682l2.903-3.515C60.444 31.942 58.278 31 55.12 31ZM9 31.356v17.828h4.94V44.09h2.471c4.406 0 7.64-2.216 7.64-6.444v-.05c0-3.947-2.904-6.24-7.386-6.24H9Zm17.136 0v17.828h4.89v-9.78l7.639 9.78h4.304V31.356h-4.89v9.423l-7.334-9.423h-4.61Zm-9.853 4.152c1.757 0 2.853.79 2.853 2.317v.051c0 1.426-1.096 2.343-2.827 2.343H13.94v-4.711h2.343Zm-3.298-33.03A1 1 0 0 0 12 3.487L12.155 25h47.76l.06-6.493h-11.49a3 3 0 0 1-3-3V2.02l-32.5.458Zm35.216 13.987c.09.026.186.042.284.042h.638l-.922-.042Z" fill="#3D4546"/></svg>