<svg width="72" height="72" fill="none" xmlns="http://www.w3.org/2000/svg"><path d="m47.236.347 14.5 16.5.253.287-.004.383-.07 7.483H63a5 5 0 0 1 5 5v20a5 5 0 0 1-5 5h-1.368l-.128 13.535a3 3 0 0 1-3 2.972H13.47a3 3 0 0 1-3-2.979L10.373 55H9a5 5 0 0 1-5-5V30a5 5 0 0 1 5-5h1.155L10 3.5A3 3 0 0 1 12.957.479L46.472.007l.46-.007.304.347ZM12.471 68.514a1 1 0 0 0 1 .993h45.033a1 1 0 0 0 1-.99L59.632 55H12.373l.098 13.514ZM11 31v17.827h4.94v-5.094h2.471c4.406 0 7.64-2.216 7.64-6.443v-.05c0-3.948-2.904-6.24-7.386-6.24H11Zm17.136 0v17.827h6.799c6.392 0 10.136-3.795 10.136-8.965v-.05c0-5.17-3.693-8.812-10.034-8.812h-6.901Zm19.498 0v17.827h4.94V42.46h8.43v-4.1h-8.43v-3.03h9.32V31h-14.26Zm-12.546 4.355c2.98 0 4.94 1.655 4.94 4.533v.05c0 2.878-1.96 4.508-4.94 4.508h-2.012v-9.091h2.012Zm-16.805-.204c1.757 0 2.853.79 2.853 2.318v.05c0 1.427-1.096 2.343-2.827 2.343H15.94v-4.71h2.343ZM12.985 2.48A1 1 0 0 0 12 3.486L12.155 25h47.76l.06-6.493h-11.49a3 3 0 0 1-3-3V2.02l-32.5.458Zm35.216 13.986c.09.026.186.042.284.042h.638l-.922-.042Z" fill="#3D4546"/></svg>