<svg width="72" height="72" fill="none" xmlns="http://www.w3.org/2000/svg"><path d="m47.236.347 14.5 16.5.253.287-.004.383-.07 7.483H63a5 5 0 0 1 5 5v20a5 5 0 0 1-5 5h-1.368l-.128 13.535a3 3 0 0 1-3 2.972H13.47a3 3 0 0 1-3-2.979L10.373 55H9a5 5 0 0 1-5-5V30a5 5 0 0 1 5-5h1.155L10 3.5A3 3 0 0 1 12.957.479L46.472.007l.46-.007.304.347ZM12.471 68.514a1 1 0 0 0 1 .993h45.033a1 1 0 0 0 1-.99L59.632 55H12.373l.098 13.514ZM50.978 31c-5.501 0-9.576 4.075-9.577 9.27v.051c0 5.425 4.101 9.219 9.678 9.219 3.285 0 5.832-1.172 7.742-2.776v-7.996h-8.174v3.616h3.488v2.165c-.713.483-1.63.738-2.853.738-2.826 0-4.837-2.063-4.838-4.966v-.051c0-2.725 2.012-4.865 4.559-4.865 1.808 0 3.005.587 4.304 1.682l2.903-3.515C56.3 31.942 54.135 31 50.977 31Zm-33.982.356V42.64c0 1.655-.79 2.495-2.012 2.495-1.12 0-1.91-.611-2.8-1.656L9 46.483c1.299 1.707 3.132 3.006 6.265 3.006 2.037 0 3.692-.611 4.89-1.808 1.196-1.197 1.757-2.776 1.757-5.017V31.356h-4.916Zm7.856 0v17.828h4.94V44.09h2.47c4.407 0 7.64-2.216 7.64-6.444v-.05c0-3.947-2.902-6.24-7.384-6.24h-7.666Zm7.284 4.152c1.757 0 2.851.79 2.851 2.317v.051c0 1.426-1.094 2.343-2.826 2.343h-2.369v-4.711h2.344Zm-19.15-33.03A1 1 0 0 0 12 3.487L12.155 25h47.76l.06-6.493h-11.49a3 3 0 0 1-3-3V2.02l-32.5.458ZM48.2 16.466c.09.026.186.042.284.042h.638l-.922-.042Z" fill="#3D4546"/></svg>