<svg width="89" height="89" viewBox="0 0 89 89" fill="none" xmlns="http://www.w3.org/2000/svg">
  <g clip-path="url(#clip0_708_53293)">
    <path d="M41.3203 47.6786V85.8214" stroke="#3D4546" stroke-width="6.35714" stroke-linecap="round" stroke-linejoin="round" />
    <path d="M28.6055 60.3929L41.3198 47.6786L54.034 60.3929" stroke="#3D4546" stroke-width="6.35714" stroke-linecap="round" stroke-linejoin="round" />
    <path d="M76.2868 51.493C78.6481 50.1305 80.6899 48.2777 82.2745 46.0594C83.8591 43.841 84.9497 41.3088 85.4728 38.6332C85.9959 35.9577 85.9392 33.2012 85.3068 30.5494C84.6743 27.8976 83.4806 25.4122 81.8063 23.2608C80.132 21.1094 78.0159 19.342 75.6006 18.0776C73.1854 16.8133 70.5271 16.0815 67.8051 15.9315C65.0831 15.7815 62.3605 16.2168 59.8209 17.2081C57.2814 18.1994 54.9839 19.7236 53.0833 21.678C51.4167 15.7648 47.6656 10.6549 42.5235 7.29296C37.3815 3.93101 31.1962 2.54434 25.111 3.38929C19.0258 4.23424 13.4522 7.25367 9.42069 11.8894C5.38914 16.5251 3.17221 22.4637 3.17971 28.6073C3.18421 34.3867 5.15734 39.9922 8.77399 44.5001" stroke="#3D4546" stroke-width="6.35714" stroke-linecap="round" stroke-linejoin="round" />
  </g>
  <defs>
    <clipPath id="clip0_708_53293">
      <rect width="89" height="89" fill="white" />
    </clipPath>
  </defs>
</svg>