<svg width="24" height="24" viewBox="0 0 24 24" fill="none" xmlns="http://www.w3.org/2000/svg">
  <path d="M21.3113 7.62821L17.1216 3.43946C16.9823 3.30014 16.8169 3.18962 16.6349 3.11421C16.4529 3.03881 16.2578 3 16.0608 3C15.8638 3 15.6687 3.03881 15.4867 3.11421C15.3047 3.18962 15.1393 3.30014 15 3.43946L3.43969 14.9998C3.2998 15.1386 3.18889 15.3038 3.11341 15.4858C3.03792 15.6678 2.99938 15.863 3.00001 16.0601V20.2498C3.00001 20.6476 3.15804 21.0291 3.43935 21.3104C3.72065 21.5917 4.10218 21.7498 4.50001 21.7498H20.25C20.4489 21.7498 20.6397 21.6708 20.7803 21.5301C20.921 21.3895 21 21.1987 21 20.9998C21 20.8009 20.921 20.6101 20.7803 20.4694C20.6397 20.3288 20.4489 20.2498 20.25 20.2498H10.8113L21.3113 9.74977C21.4506 9.61048 21.5611 9.44511 21.6365 9.2631C21.7119 9.08109 21.7507 8.886 21.7507 8.68899C21.7507 8.49198 21.7119 8.2969 21.6365 8.11489C21.5611 7.93288 21.4506 7.7675 21.3113 7.62821ZM8.68969 20.2498H4.50001V16.0601L12.75 7.81009L16.9397 11.9998L8.68969 20.2498ZM18 10.9395L13.8113 6.74977L16.0613 4.49977L20.25 8.68946L18 10.9395Z" fill="#3D4546" />
</svg>