<svg width="72" height="72" viewBox="0 0 72 72" fill="none" xmlns="http://www.w3.org/2000/svg">
<path d="M47.2363 0.34668L61.7363 16.8467L61.9893 17.1338L61.9854 17.5166L61.915 25H63C65.7614 25 68 27.2386 68 30V50C68 52.7614 65.7614 55 63 55H61.6318L61.5039 68.5352C61.4884 70.1809 60.1497 71.5068 58.5039 71.5068H13.4707C11.8225 71.5066 10.4826 70.1765 10.4707 68.5283L10.373 55H9C6.23858 55 4 52.7614 4 50V30C4 27.2386 6.23858 25 9 25H10.1553L10 3.5C9.98827 1.85156 11.3087 0.502031 12.957 0.478516L46.4717 0.00683594L46.9326 0L47.2363 0.34668ZM12.4707 68.5137C12.4747 69.063 12.9214 69.5066 13.4707 69.5068H58.5039C59.0524 69.5068 59.4986 69.065 59.5039 68.5166L59.6318 55H12.373L12.4707 68.5137ZM59.3672 35.7725C57.8598 35.7725 57.003 36.4985 56.3145 37.3359V35.9961H52.7783V49.042H56.3145V44.8359C56.9844 45.599 57.8597 46.2881 59.3857 46.2881C61.7676 46.2879 63.8328 44.2965 63.833 41.0215V40.9834C63.8328 37.7643 61.749 35.7727 59.3672 35.7725ZM32.8789 35.7725C29.9012 35.7725 27.7979 38.1182 27.7979 41.04V41.0771C27.798 44.1849 30.0316 46.3066 33.1953 46.3066C35.2052 46.3066 36.5821 45.5057 37.5498 44.2588L35.5957 42.6406C34.8701 43.3662 34.2368 43.6641 33.3623 43.6641C32.246 43.6639 31.4648 43.124 31.1855 42.0078H37.9219C37.9405 41.7659 37.9404 41.5046 37.9404 41.2812C37.9403 38.3224 36.3403 35.7725 32.8789 35.7725ZM16.5977 33L14.0859 40.5742L11.8154 33.0371H8L12.3545 46.1572H15.5L18.124 38.6572L20.7295 46.1572H23.875L28.2295 33.0371H24.4893L22.2188 40.5742L19.7061 33H16.5977ZM39.6797 33.0371V46.0645H46.3984C49.5249 46.0644 51.3301 44.7245 51.3301 42.4727V42.4355C51.3301 40.6676 50.325 39.774 48.7432 39.2529C49.9156 38.7504 50.7529 37.857 50.7529 36.3496V36.3125C50.7529 35.4195 50.4369 34.731 49.916 34.1914C49.153 33.447 47.9989 33.0372 46.3613 33.0371H39.6797ZM58.3057 38.7139C59.4223 38.7139 60.3721 39.663 60.3721 41.0029V41.04C60.3719 42.3984 59.4222 43.3291 58.3057 43.3291C57.1521 43.3289 56.2404 42.3797 56.2402 41.04V41.0029C56.2402 39.6631 57.152 38.714 58.3057 38.7139ZM45.9512 40.7607C47.1606 40.7607 47.7195 41.207 47.7197 41.9326V41.9697C47.7197 42.7327 47.1056 43.161 45.9893 43.1611H43.1973V40.7607H45.9512ZM32.8789 38.3779C33.8466 38.378 34.5162 39.0856 34.6465 40.2021H31.1299C31.3346 39.0856 31.9298 38.3779 32.8789 38.3779ZM45.5605 35.9404C46.6584 35.9404 47.198 36.3125 47.1982 37.0566V37.0947C47.198 37.8574 46.5842 38.2295 45.4678 38.2295H43.1973V35.9404H45.5605ZM12.9854 2.47852C12.436 2.48647 11.996 2.93686 12 3.48633L12.1553 25H59.9141L59.9756 18.5068H48.4854C46.8286 18.5068 45.4854 17.1636 45.4854 15.5068V2.02051L12.9854 2.47852ZM48.2012 16.4648C48.2913 16.4915 48.3866 16.5068 48.4854 16.5068H49.123L48.2012 16.4648Z" fill="#3D4546"/>
</svg>
