<svg width="72" height="72" viewBox="0 0 72 72" fill="none" xmlns="http://www.w3.org/2000/svg">
<path d="M47.2363 0.34668L61.7363 16.8467L61.9893 17.1338L61.9854 17.5166L61.915 25H63C65.7614 25 68 27.2386 68 30V50C68 52.7614 65.7614 55 63 55H61.6318L61.5039 68.5352C61.4884 70.1809 60.1497 71.5068 58.5039 71.5068H13.4707C11.8225 71.5066 10.4826 70.1765 10.4707 68.5283L10.373 55H9C6.23858 55 4 52.7614 4 50V30C4 27.2386 6.23858 25 9 25H10.1553L10 3.5C9.98827 1.85156 11.3087 0.502031 12.957 0.478516L46.4717 0.00683594L46.9326 0L47.2363 0.34668ZM12.4707 68.5137C12.4747 69.063 12.9214 69.5066 13.4707 69.5068H58.5039C59.0524 69.5068 59.4986 69.065 59.5039 68.5166L59.6318 55H12.373L12.4707 68.5137ZM50.9775 31C45.4768 31 41.4016 35.0745 41.4014 40.2695V40.3213C41.4016 45.7455 45.502 49.54 51.0791 49.54C54.3642 49.54 56.9113 48.3681 58.8213 46.7637V38.7676H50.6465V42.3838H54.1348V44.5488C53.4217 45.0325 52.5044 45.2871 51.2822 45.2871C48.4558 45.2869 46.4445 43.2241 46.4443 40.3213V40.2695C46.4445 37.5448 48.4564 35.4053 51.0029 35.4053C52.8109 35.4054 54.0079 35.9919 55.3066 37.0869L58.21 33.5723C56.3 31.9425 54.1352 31.0001 50.9775 31ZM16.9961 31.3564V42.6387C16.996 44.2938 16.2067 45.1338 14.9844 45.1338C13.864 45.1337 13.0748 44.5226 12.1836 43.4785L9 46.4834C10.2988 48.1896 12.1323 49.4892 15.2646 49.4893C17.302 49.4893 18.9574 48.8776 20.1543 47.6807C21.3512 46.4838 21.9121 44.905 21.9121 42.6641V31.3564H16.9961ZM24.8516 31.3564V49.1836H29.792V44.0898H32.2627C36.6685 44.0898 39.9023 41.874 39.9023 37.6465V37.5957C39.9022 33.6485 36.9996 31.3565 32.5176 31.3564H24.8516ZM32.1357 35.5078C33.8928 35.5079 34.9873 36.2973 34.9873 37.8252V37.876C34.9873 39.302 33.8927 40.2187 32.1611 40.2188H29.792V35.5078H32.1357ZM12.9854 2.47852C12.436 2.48647 11.996 2.93686 12 3.48633L12.1553 25H59.9141L59.9756 18.5068H48.4854C46.8286 18.5068 45.4854 17.1636 45.4854 15.5068V2.02051L12.9854 2.47852ZM48.2012 16.4648C48.2913 16.4915 48.3866 16.5068 48.4854 16.5068H49.123L48.2012 16.4648Z" fill="#3D4546"/>
</svg>
