<svg width="72" height="72" viewBox="0 0 72 72" fill="none" xmlns="http://www.w3.org/2000/svg">
<path d="M47.2363 0.34668L61.7363 16.8467L61.9893 17.1338L61.9854 17.5166L61.915 25H63C65.7614 25 68 27.2386 68 30V50C68 52.7614 65.7614 55 63 55H61.6318L61.5039 68.5352C61.4884 70.1809 60.1497 71.5068 58.5039 71.5068H13.4707C11.8225 71.5066 10.4826 70.1765 10.4707 68.5283L10.373 55H9C6.23858 55 4 52.7614 4 50V30C4 27.2386 6.23858 25 9 25H10.1553L10 3.5C9.98827 1.85156 11.3087 0.502031 12.957 0.478516L46.4717 0.00683594L46.9326 0L47.2363 0.34668ZM12.4707 68.5137C12.4747 69.063 12.9214 69.5066 13.4707 69.5068H58.5039C59.0524 69.5068 59.4986 69.065 59.5039 68.5166L59.6318 55H12.373L12.4707 68.5137ZM55.1201 31C49.6197 31.0002 45.5451 35.0746 45.5449 40.2695V40.3213C45.5451 45.7455 49.6456 49.54 55.2227 49.54C58.5078 49.54 61.0549 48.368 62.9648 46.7637V38.7676H54.7891V42.3838H58.2783V44.5488C57.5653 45.0326 56.648 45.2871 55.4258 45.2871C52.5993 45.2869 50.5881 43.2241 50.5879 40.3213V40.2695C50.5881 37.5448 52.5999 35.4053 55.1465 35.4053C56.9544 35.4054 58.1515 35.9919 59.4502 37.0869L62.3535 33.5723C60.4435 31.9424 58.278 31 55.1201 31ZM9 31.3564V49.1836H13.9404V44.0898H16.4111C20.8167 44.0897 24.0508 41.8739 24.0508 37.6465V37.5957C24.0507 33.6485 21.1471 31.3564 16.665 31.3564H9ZM26.1357 31.3564V49.1836H31.0254V39.4043L38.665 49.1836H42.9688V31.3564H38.0791V40.7793L30.7451 31.3564H26.1357ZM16.2832 35.5078C18.0404 35.5078 19.1357 36.2972 19.1357 37.8252V37.876C19.1357 39.3021 18.0403 40.2188 16.3086 40.2188H13.9404V35.5078H16.2832ZM12.9854 2.47852C12.436 2.48647 11.996 2.93686 12 3.48633L12.1553 25H59.9141L59.9756 18.5068H48.4854C46.8286 18.5068 45.4854 17.1636 45.4854 15.5068V2.02051L12.9854 2.47852ZM48.2012 16.4648C48.2913 16.4915 48.3866 16.5068 48.4854 16.5068H49.123L48.2012 16.4648Z" fill="#3D4546"/>
</svg>
