<svg width="72" height="72" viewBox="0 0 72 72" fill="none" xmlns="http://www.w3.org/2000/svg">
<path d="M47.2363 0.34668L61.7363 16.8467L61.9893 17.1338L61.9854 17.5166L61.915 25H63C65.7614 25 68 27.2386 68 30V50C68 52.7614 65.7614 55 63 55H61.6318L61.5039 68.5352C61.4884 70.1809 60.1497 71.5068 58.5039 71.5068H13.4707C11.8225 71.5066 10.4826 70.1765 10.4707 68.5283L10.373 55H9C6.23858 55 4 52.7614 4 50V30C4 27.2386 6.23858 25 9 25H10.1553L10 3.5C9.98827 1.85156 11.3087 0.502031 12.957 0.478516L46.4717 0.00683594L46.9326 0L47.2363 0.34668ZM12.4707 68.5137C12.4747 69.063 12.9214 69.5066 13.4707 69.5068H58.5039C59.0524 69.5068 59.4986 69.065 59.5039 68.5166L59.6318 55H12.373L12.4707 68.5137ZM11 31V48.8271H15.9404V43.7334H18.4111C22.8167 43.7333 26.0508 41.5174 26.0508 37.29V37.2393C26.0507 33.292 23.1472 31 18.665 31H11ZM28.1357 31V48.8271H34.9346C41.3267 48.8271 45.0713 45.0321 45.0713 39.8623V39.8115C45.0713 34.6418 41.3782 31.0001 35.0371 31H28.1357ZM47.6338 31V48.8271H52.5742V42.46H61.0039V38.3604H52.5742V35.3291H61.8945V31H47.6338ZM35.0879 35.3545C38.0674 35.3545 40.0282 37.0101 40.0283 39.8877V39.9385C40.0283 42.8162 38.0675 44.4463 35.0879 44.4463H33.0762V35.3545H35.0879ZM18.2832 35.1514C20.0404 35.1514 21.1357 35.9407 21.1357 37.4688V37.5195C21.1357 38.9457 20.0403 39.8623 18.3086 39.8623H15.9404V35.1514H18.2832ZM12.9854 2.47852C12.436 2.48647 11.996 2.93686 12 3.48633L12.1553 25H59.9141L59.9756 18.5068H48.4854C46.8286 18.5068 45.4854 17.1636 45.4854 15.5068V2.02051L12.9854 2.47852ZM48.2012 16.4648C48.2913 16.4915 48.3866 16.5068 48.4854 16.5068H49.123L48.2012 16.4648Z" fill="#3D4546"/>
</svg>
